<svg xmlns:xlink="http://www.w3.org/1999/xlink" xmlns="http://www.w3.org/2000/svg" width="1728" height="1117" viewBox="0 0 1728 1117" fill="none">
<circle cx="697.925" cy="951.488" r="2.5" fill="#D9D9D9" fill-opacity="0.2"/>
<circle cx="357.369" cy="163.285" r="1" fill="#D9D9D9" fill-opacity="0.2"/>
<circle cx="1552.7" cy="905.134" r="1" fill="#D9D9D9" fill-opacity="0.2"/>
<circle cx="870.629" cy="996.668" r="1" fill="#D9D9D9" fill-opacity="0.2"/>
<circle cx="1533.45" cy="742.658" r="1" fill="#D9D9D9"/>
<circle cx="954.445" cy="267.678" r="1" fill="#D9D9D9" fill-opacity="0.2"/>
<circle cx="130.39" cy="803.948" r="1" fill="#D9D9D9"/>
<circle cx="181.852" cy="982.753" r="1" fill="#D9D9D9"/>
<circle cx="1481.1" cy="646.467" r="1" fill="#D9D9D9" fill-opacity="0.2"/>
<circle cx="870.361" cy="825.118" r="1" fill="#D9D9D9" fill-opacity="0.2"/>
<circle cx="888.849" cy="236.605" r="1" fill="#D9D9D9"/>
<circle cx="750.462" cy="324.374" r="1" fill="#D9D9D9" fill-opacity="0.2"/>
<circle cx="1367.38" cy="1039.75" r="1" fill="#808080"/>
<circle cx="332.763" cy="372.031" r="1" fill="#D9D9D9" fill-opacity="0.2"/>
<circle cx="1475.88" cy="120.651" r="1" fill="#D9D9D9"/>
<circle cx="1208.44" cy="125.787" r="1" fill="#D9D9D9"/>
<circle cx="1632.48" cy="529.214" r="1" fill="#D9D9D9" fill-opacity="0.2"/>
<circle cx="941.275" cy="531.367" r="1" fill="#D9D9D9" fill-opacity="0.2"/>
<circle cx="1096.69" cy="360.902" r="1" fill="#D9D9D9"/>
<circle cx="969.444" cy="858.489" r="1" fill="#D9D9D9" fill-opacity="0.2"/>
<circle cx="340.24" cy="49.7039" r="1" fill="#D9D9D9" fill-opacity="0.2"/>
<circle cx="1608.39" cy="1023.83" r="1" fill="#D9D9D9"/>
<circle cx="566.903" cy="213.465" r="1" fill="#D9D9D9"/>
<circle cx="1557.8" cy="514.525" r="1" fill="#D9D9D9" fill-opacity="0.2"/>
<circle cx="1255.48" cy="717.034" r="1" fill="#D9D9D9" fill-opacity="0.2"/>
<circle cx="213.466" cy="980.024" r="1" fill="#D9D9D9" fill-opacity="0.2"/>
<circle cx="933.479" cy="589.939" r="1" fill="#808080"/>
<circle cx="1418.85" cy="408.131" r="1" fill="#D9D9D9" fill-opacity="0.2"/>
<circle cx="340.008" cy="456.215" r="1" fill="#D9D9D9" fill-opacity="0.2"/>
<circle cx="308.379" cy="793.082" r="1" fill="#D9D9D9" fill-opacity="0.2"/>
<circle cx="1355.31" cy="975.9" r="1" fill="#D9D9D9" fill-opacity="0.2"/>
<circle cx="1595.85" cy="16.6943" r="1" fill="#808080"/>
<circle cx="1202" cy="619.861" r="1" fill="#D9D9D9" fill-opacity="0.2"/>
<circle cx="1134.72" cy="547.478" r="1" fill="#D9D9D9"/>
<circle cx="1099.53" cy="736.273" r="1" fill="#D9D9D9" fill-opacity="0.2"/>
<circle cx="290.964" cy="32.2009" r="1" fill="#D9D9D9" fill-opacity="0.2"/>
<circle cx="1455.06" cy="897.117" r="1" fill="#D9D9D9" fill-opacity="0.2"/>
<circle cx="555.695" cy="752.879" r="1" fill="#D9D9D9" fill-opacity="0.2"/>
<circle cx="1021.28" cy="592.59" r="1" fill="#D9D9D9" fill-opacity="0.2"/>
<circle cx="1524.07" cy="217.539" r="1" fill="#D9D9D9" fill-opacity="0.2"/>
<circle cx="1533.91" cy="792.243" r="1" fill="#D9D9D9" fill-opacity="0.2"/>
<circle cx="116.784" cy="422.578" r="1" fill="#D9D9D9" fill-opacity="0.2"/>
<circle cx="291.906" cy="716.236" r="1" fill="#D9D9D9"/>
<circle cx="501.77" cy="547.15" r="1" fill="#D9D9D9" fill-opacity="0.2"/>
<circle cx="163.184" cy="993.232" r="1" fill="#D9D9D9" fill-opacity="0.2"/>
<circle cx="962.755" cy="52.6799" r="1" fill="#D9D9D9" fill-opacity="0.2"/>
<circle cx="845.417" cy="335.879" r="1" fill="#D9D9D9"/>
<circle cx="1224.84" cy="545.829" r="1" fill="#D9D9D9" fill-opacity="0.2"/>
<circle cx="188.255" cy="1016.51" r="1" fill="#D9D9D9" fill-opacity="0.2"/>
<circle cx="159.913" cy="272.439" r="1" fill="#D9D9D9"/>
<circle cx="1504.48" cy="399.203" r="1" fill="#808080"/>
<circle cx="1005.36" cy="6.30957" r="1" fill="#D9D9D9" fill-opacity="0.2"/>
<circle cx="628.406" cy="691.03" r="1" fill="#D9D9D9" fill-opacity="0.2"/>
<circle cx="1581.16" cy="189.971" r="1" fill="#D9D9D9" fill-opacity="0.2"/>
<circle cx="1433.52" cy="202.71" r="1" fill="#D9D9D9" fill-opacity="0.2"/>
<circle cx="1104.56" cy="671.837" r="1" fill="#D9D9D9" fill-opacity="0.2"/>
<circle cx="388.517" cy="527.222" r="1" fill="#D9D9D9" fill-opacity="0.2"/>
<circle cx="518.113" cy="36.334" r="1" fill="#808080"/>
<circle cx="897.228" cy="477.465" r="1" fill="#D9D9D9" fill-opacity="0.2"/>
<circle cx="455.047" cy="168.021" r="1" fill="#D9D9D9" fill-opacity="0.2"/>
<circle cx="1328.86" cy="31.7246" r="1" fill="#D9D9D9" fill-opacity="0.2"/>
<circle cx="741.19" cy="782.635" r="1" fill="#D9D9D9" fill-opacity="0.2"/>
<circle cx="217.495" cy="247.777" r="1" fill="#808080"/>
<circle cx="359.354" cy="761.953" r="1" fill="#D9D9D9" fill-opacity="0.2"/>
<circle cx="597.618" cy="801.016" r="1" fill="#D9D9D9" fill-opacity="0.2"/>
<circle cx="1330.53" cy="199.907" r="1" fill="#D9D9D9" fill-opacity="0.2"/>
<circle cx="1047.07" cy="776.194" r="1" fill="#D9D9D9" fill-opacity="0.2"/>
<circle cx="1676.48" cy="961.314" r="1" fill="#D9D9D9" fill-opacity="0.2"/>
<circle cx="1366.36" cy="107.642" r="1" fill="#D9D9D9" fill-opacity="0.2"/>
<circle cx="1360.08" cy="751.303" r="1" fill="#D9D9D9"/>
<circle cx="232.631" cy="149.732" r="1" fill="#D9D9D9"/>
<circle cx="1718.66" cy="193.512" r="1" fill="#D9D9D9"/>
<circle cx="876.38" cy="397.685" r="1" fill="#D9D9D9"/>
<circle cx="1341.75" cy="291.558" r="1" fill="#D9D9D9" fill-opacity="0.2"/>
<circle cx="1260.32" cy="732.76" r="1" fill="#D9D9D9" fill-opacity="0.2"/>
<circle cx="1602.94" cy="10.4114" r="1" fill="#D9D9D9" fill-opacity="0.2"/>
<circle cx="831.647" cy="234.566" r="1" fill="#D9D9D9" fill-opacity="0.2"/>
<circle cx="1371.15" cy="1029.36" r="1" fill="#D9D9D9"/>
<circle cx="1554.28" cy="628.872" r="1" fill="#D9D9D9" fill-opacity="0.2"/>
<circle cx="1622.45" cy="536.417" r="1" fill="#D9D9D9"/>
<circle cx="852.438" cy="487.256" r="1" fill="#D9D9D9" fill-opacity="0.2"/>
<circle cx="1698.61" cy="1089.35" r="1" fill="#D9D9D9" fill-opacity="0.2"/>
<circle cx="1359.11" cy="298.316" r="2.5" fill="#D9D9D9" fill-opacity="0.2"/>
<circle cx="1304.23" cy="280.2" r="2.5" fill="#D9D9D9" fill-opacity="0.2"/>
<circle cx="644.083" cy="295.325" r="2.5" fill="#D9D9D9"/>
<circle cx="1645.35" cy="637.875" r="2.5" fill="#D9D9D9" fill-opacity="0.2"/>
<circle cx="1583.75" cy="927.794" r="2.5" fill="#D9D9D9" fill-opacity="0.2"/>
<circle cx="310.331" cy="1035.53" r="2.5" fill="#D9D9D9" fill-opacity="0.2"/>
<circle cx="1167.16" cy="74.4609" r="2.5" fill="#D9D9D9"/>
<circle cx="814.936" cy="799.613" r="2.5" fill="#D9D9D9" fill-opacity="0.2"/>
<circle cx="694.029" cy="131.215" r="2.5" fill="#D9D9D9" fill-opacity="0.2"/>
<circle cx="339.848" cy="436.209" r="2.5" fill="#D9D9D9" fill-opacity="0.2"/>
<circle cx="121.362" cy="132.409" r="2.5" fill="#D9D9D9"/>
<circle cx="393.137" cy="245.675" r="2.5" fill="#D9D9D9" fill-opacity="0.2"/>
<circle cx="1324.83" cy="778.698" r="2.5" fill="#D9D9D9"/>
<circle cx="275.157" cy="467.819" r="2.5" fill="#D9D9D9" fill-opacity="0.2"/>
<circle cx="454.023" cy="660.142" r="2.5" fill="#D9D9D9" fill-opacity="0.2"/>
<circle cx="1373.61" cy="120.573" r="2.5" fill="#D9D9D9" fill-opacity="0.2"/>
<circle cx="89.0659" cy="136.95" r="2.5" fill="#D9D9D9" fill-opacity="0.2"/>
<circle cx="981.116" cy="708.061" r="2.5" fill="#D9D9D9"/>
<circle cx="822.636" cy="1113.13" r="2.5" fill="#D9D9D9" fill-opacity="0.2"/>
<circle cx="1585.15" cy="1035.55" r="2.5" fill="#D9D9D9" fill-opacity="0.2"/>
<circle cx="1245.12" cy="717.313" r="2.5" fill="#D9D9D9" fill-opacity="0.2"/>
<circle cx="1605.57" cy="326.804" r="2.5" fill="#D9D9D9" fill-opacity="0.2"/>
<circle cx="1208.82" cy="119.092" r="2.5" fill="#D9D9D9" fill-opacity="0.2"/>
<circle cx="356.123" cy="287.012" r="2.5" fill="#D9D9D9" fill-opacity="0.2"/>
<circle cx="6.57837" cy="116.473" r="2.5" fill="#D9D9D9" fill-opacity="0.2"/>
<circle cx="7.53418" cy="896.691" r="2.5" fill="#D9D9D9" fill-opacity="0.2"/>
<circle cx="687.522" cy="73.9121" r="2.5" fill="#D9D9D9" fill-opacity="0.2"/>
<circle cx="1416.55" cy="152.674" r="2.5" fill="#D9D9D9" fill-opacity="0.2"/>
<circle cx="1528.63" cy="698.258" r="2.5" fill="#D9D9D9" fill-opacity="0.2"/>
<circle cx="611.466" cy="1091.15" r="2.5" fill="#D9D9D9" fill-opacity="0.2"/>
<circle cx="143.878" cy="160.461" r="2.5" fill="#D9D9D9"/>
<circle cx="835.521" cy="575.033" r="2.5" fill="#D9D9D9" fill-opacity="0.2"/>
<circle cx="540.884" cy="782.259" r="2.5" fill="#D9D9D9" fill-opacity="0.2"/>
<circle cx="1619.09" cy="159.791" r="2.5" fill="#D9D9D9" fill-opacity="0.2"/>
<circle cx="1683.32" cy="450.64" r="2.5" fill="#D9D9D9"/>
<circle cx="509.984" cy="483.552" r="2.5" fill="#D9D9D9" fill-opacity="0.2"/>
<circle cx="629.9" cy="430.794" r="2.5" fill="#D9D9D9"/>
<circle cx="448.832" cy="497.06" r="2.5" fill="#D9D9D9" fill-opacity="0.2"/>
<circle cx="1721.41" cy="819.217" r="2.5" fill="#D9D9D9" fill-opacity="0.2"/>
<circle cx="483.704" cy="502.879" r="2.5" fill="#D9D9D9" fill-opacity="0.2"/>
<circle cx="801.951" cy="967.524" r="2.5" fill="#D9D9D9"/>
<circle cx="265.84" cy="232.032" r="2.5" fill="#D9D9D9" fill-opacity="0.2"/>
<circle cx="1598.68" cy="221.158" r="2.5" fill="#808080"/>
<circle cx="1236.74" cy="166.192" r="2.5" fill="#D9D9D9" fill-opacity="0.2"/>
<circle cx="1516.23" cy="137.235" r="2.5" fill="#D9D9D9" fill-opacity="0.2"/>
<circle cx="618.692" cy="110.643" r="2.5" fill="#D9D9D9" fill-opacity="0.2"/>
<circle cx="40.1182" cy="935.331" r="2.5" fill="#D9D9D9" fill-opacity="0.2"/>
<circle cx="1673.78" cy="1007.46" r="2.5" fill="#D9D9D9" fill-opacity="0.2"/>
<circle cx="805.952" cy="794.324" r="2.5" fill="#D9D9D9" fill-opacity="0.2"/>
<circle cx="972.533" cy="129.84" r="2.5" fill="#D9D9D9" fill-opacity="0.2"/>
<circle cx="1153.56" cy="523.638" r="2.5" fill="#D9D9D9" fill-opacity="0.2"/>
<circle cx="1369.48" cy="207.716" r="2.5" fill="#D9D9D9" fill-opacity="0.2"/>
<circle cx="1460.93" cy="1010.13" r="2.5" fill="#D9D9D9" fill-opacity="0.2"/>
<circle cx="128.51" cy="1085.37" r="2.5" fill="#D9D9D9" fill-opacity="0.2"/>
<circle cx="134.762" cy="569.624" r="2.5" fill="#D9D9D9" fill-opacity="0.2"/>
<circle cx="718.904" cy="159.926" r="2.5" fill="#D9D9D9" fill-opacity="0.2"/>
<circle cx="286.282" cy="1099.04" r="2.5" fill="#D9D9D9" fill-opacity="0.2"/>
<circle cx="430.387" cy="301.531" r="2.5" fill="#D9D9D9" fill-opacity="0.2"/>
<circle cx="1057.86" cy="1031.79" r="2.5" fill="#D9D9D9" fill-opacity="0.2"/>
<circle cx="1581.94" cy="1093.68" r="2.5" fill="#D9D9D9" fill-opacity="0.2"/>
<circle cx="973.15" cy="763.593" r="2.5" fill="#D9D9D9" fill-opacity="0.2"/>
<circle cx="361.11" cy="388.253" r="2.5" fill="#D9D9D9" fill-opacity="0.2"/>
<circle cx="1636.79" cy="489.193" r="2.5" fill="#D9D9D9" fill-opacity="0.2"/>
<circle cx="27.2942" cy="599.712" r="2.5" fill="#D9D9D9" fill-opacity="0.2"/>
<circle cx="89.2185" cy="957.188" r="2.5" fill="#D9D9D9" fill-opacity="0.2"/>
<circle cx="1213.52" cy="689.923" r="2.5" fill="#D9D9D9"/>
<circle cx="158.125" cy="26.9556" r="2.5" fill="#D9D9D9" fill-opacity="0.2"/>
<circle cx="1229.78" cy="414.191" r="2.5" fill="#D9D9D9"/>
<circle cx="573.166" cy="839.371" r="2.5" fill="#D9D9D9" fill-opacity="0.2"/>
<circle cx="902.871" cy="1066.24" r="2.5" fill="#D9D9D9" fill-opacity="0.2"/>
<circle cx="1361" cy="1109.41" r="2.5" fill="#D9D9D9" fill-opacity="0.2"/>
<circle cx="1555.45" cy="398.704" r="2.5" fill="#D9D9D9"/>
<circle cx="172.099" cy="658.979" r="2.5" fill="#D9D9D9" fill-opacity="0.2"/>
<circle cx="1631.93" cy="1027.25" r="2.5" fill="#D9D9D9" fill-opacity="0.2"/>
<circle cx="671.805" cy="712.204" r="2.5" fill="#D9D9D9" fill-opacity="0.2"/>
<circle cx="761.927" cy="14.0408" r="2.5" fill="#D9D9D9" fill-opacity="0.2"/>
<circle cx="1429" cy="239.194" r="2.5" fill="#D9D9D9" fill-opacity="0.2"/>
<circle cx="664.979" cy="771.806" r="2.5" fill="#D9D9D9" fill-opacity="0.2"/>
<circle cx="372.396" cy="880.418" r="2.5" fill="#D9D9D9" fill-opacity="0.2"/>
<circle cx="333.822" cy="175.543" r="2.5" fill="#D9D9D9" fill-opacity="0.2"/>
<circle cx="176.152" cy="401.329" r="2.5" fill="#D9D9D9"/>
<circle cx="750.122" cy="1041.01" r="2.5" fill="#D9D9D9" fill-opacity="0.2"/>
<circle cx="1440.52" cy="746.56" r="2.5" fill="#D9D9D9" fill-opacity="0.2"/>
<circle cx="1135.85" cy="706.534" r="2.5" fill="#D9D9D9" fill-opacity="0.2"/>
<circle cx="10.5205" cy="759.885" r="2.5" fill="#D9D9D9" fill-opacity="0.2"/>
<circle cx="1217.87" cy="372.093" r="2.5" fill="#D9D9D9" fill-opacity="0.2"/>
<circle cx="1671.65" cy="376.086" r="2.5" fill="#D9D9D9" fill-opacity="0.2"/>
<circle cx="1298.24" cy="84.9426" r="2.5" fill="#D9D9D9" fill-opacity="0.2"/>
<circle cx="686.219" cy="855.726" r="2.5" fill="#D9D9D9" fill-opacity="0.2"/>
<circle cx="748.199" cy="48.9011" r="2.5" fill="#D9D9D9" fill-opacity="0.2"/>
<circle cx="155.479" cy="1025.93" r="2.5" fill="#D9D9D9" fill-opacity="0.2"/>
<circle cx="1016.35" cy="767.533" r="2.5" fill="#808080"/>
<circle cx="1575.09" cy="642.702" r="2.5" fill="#D9D9D9" fill-opacity="0.2"/>
<circle cx="1661.96" cy="857.327" r="2.5" fill="#D9D9D9"/>
<circle cx="133.962" cy="219.708" r="2.5" fill="#D9D9D9" fill-opacity="0.2"/>
<circle cx="639.781" cy="973.836" r="2.5" fill="#D9D9D9" fill-opacity="0.2"/>
<circle cx="817.906" cy="551.523" r="2.5" fill="#D9D9D9"/>
<path d="M799.004 759.531L799.534 761.5L801.504 762.031L799.534 762.561L799.004 764.531L798.474 762.561L796.504 762.031L798.474 761.5L799.004 759.531Z" fill="#D9D9D9" fill-opacity="0.2"/>
<path d="M896.524 238.765L897.055 240.735L899.024 241.265L897.055 241.796L896.524 243.765L895.994 241.796L894.024 241.265L895.994 240.735L896.524 238.765Z" fill="#D9D9D9"/>
<path d="M864.507 363.437L865.037 365.407L867.007 365.937L865.037 366.467L864.507 368.437L863.977 366.467L862.007 365.937L863.977 365.407L864.507 363.437Z" fill="#D9D9D9" fill-opacity="0.2"/>
<path d="M1358.98 261.806L1359.51 263.776L1361.48 264.306L1359.51 264.836L1358.98 266.806L1358.45 264.836L1356.48 264.306L1358.45 263.776L1358.98 261.806Z" fill="#D9D9D9" fill-opacity="0.2"/>
<path d="M1296.53 1069.23L1297.06 1071.19L1299.03 1071.73L1297.06 1072.26L1296.53 1074.23L1296 1072.26L1294.03 1071.73L1296 1071.19L1296.53 1069.23Z" fill="#D9D9D9" fill-opacity="0.2"/>
<path d="M1300.35 809.247L1300.88 811.217L1302.85 811.747L1300.88 812.278L1300.35 814.247L1299.82 812.278L1297.85 811.747L1299.82 811.217L1300.35 809.247Z" fill="#D9D9D9"/>
<path d="M253.787 59.594L254.317 61.5637L256.287 62.094L254.317 62.6243L253.787 64.594L253.256 62.6243L251.287 62.094L253.256 61.5637L253.787 59.594Z" fill="#D9D9D9" fill-opacity="0.2"/>
<path d="M1135.55 111.831L1136.08 113.801L1138.05 114.331L1136.08 114.862L1135.55 116.831L1135.02 114.862L1133.05 114.331L1135.02 113.801L1135.55 111.831Z" fill="#D9D9D9"/>
<path d="M1074.31 1094.85L1074.84 1096.81L1076.81 1097.35L1074.84 1097.88L1074.31 1099.85L1073.78 1097.88L1071.81 1097.35L1073.78 1096.81L1074.31 1094.85Z" fill="#D9D9D9" fill-opacity="0.2"/>
<path d="M1251.54 668.438L1252.07 670.408L1254.04 670.938L1252.07 671.468L1251.54 673.438L1251.01 671.468L1249.04 670.938L1251.01 670.408L1251.54 668.438Z" fill="#D9D9D9" fill-opacity="0.2"/>
<path d="M613.45 944.515L613.981 946.484L615.95 947.015L613.981 947.545L613.45 949.515L612.92 947.545L610.95 947.015L612.92 946.484L613.45 944.515Z" fill="#D9D9D9" fill-opacity="0.2"/>
<path d="M1531.84 1020.74L1532.37 1022.71L1534.34 1023.24L1532.37 1023.77L1531.84 1025.74L1531.31 1023.77L1529.34 1023.24L1531.31 1022.71L1531.84 1020.74Z" fill="#D9D9D9" fill-opacity="0.2"/>
<path d="M507.633 227.669L508.163 229.639L510.133 230.169L508.163 230.7L507.633 232.669L507.102 230.7L505.133 230.169L507.102 229.639L507.633 227.669Z" fill="#D9D9D9" fill-opacity="0.2"/>
<path d="M1099.11 246.445L1099.64 248.415L1101.61 248.945L1099.64 249.476L1099.11 251.445L1098.58 249.476L1096.61 248.945L1098.58 248.415L1099.11 246.445Z" fill="#D9D9D9"/>
<path d="M949.983 1102.53L950.513 1104.5L952.483 1105.03L950.513 1105.56L949.983 1107.53L949.453 1105.56L947.483 1105.03L949.453 1104.5L949.983 1102.53Z" fill="#D9D9D9" fill-opacity="0.2"/>
<path d="M1602.92 399.816L1603.45 401.785L1605.42 402.316L1603.45 402.846L1602.92 404.816L1602.38 402.846L1600.42 402.316L1602.38 401.785L1602.92 399.816Z" fill="#D9D9D9"/>
<path d="M1430.4 267.555L1430.93 269.525L1432.9 270.055L1430.93 270.586L1430.4 272.555L1429.87 270.586L1427.9 270.055L1429.87 269.525L1430.4 267.555Z" fill="#D9D9D9" fill-opacity="0.2"/>
<path d="M846.02 245.102L846.55 247.072L848.52 247.602L846.55 248.132L846.02 250.102L845.49 248.132L843.52 247.602L845.49 247.072L846.02 245.102Z" fill="#D9D9D9" fill-opacity="0.2"/>
<path d="M743.536 112.054L744.067 114.024L746.036 114.554L744.067 115.085L743.536 117.054L743.006 115.085L741.036 114.554L743.006 114.024L743.536 112.054Z" fill="#D9D9D9" fill-opacity="0.2"/>
<path d="M28.7627 635.961L29.293 637.931L31.2627 638.461L29.293 638.992L28.7627 640.961L28.2324 638.992L26.2627 638.461L28.2324 637.931L28.7627 635.961Z" fill="#D9D9D9" fill-opacity="0.2"/>
<path d="M614.107 1003.87L614.637 1005.84L616.607 1006.37L614.637 1006.9L614.107 1008.87L613.577 1006.9L611.607 1006.37L613.577 1005.84L614.107 1003.87Z" fill="#D9D9D9"/>
<path d="M723.271 9.29126L723.801 11.2609L725.771 11.7913L723.801 12.3216L723.271 14.2913L722.74 12.3216L720.771 11.7913L722.74 11.2609L723.271 9.29126Z" fill="#D9D9D9" fill-opacity="0.2"/>
<path d="M1429.29 1069.33L1429.82 1071.3L1431.79 1071.83L1429.82 1072.36L1429.29 1074.33L1428.76 1072.36L1426.79 1071.83L1428.76 1071.3L1429.29 1069.33Z" fill="#D9D9D9" fill-opacity="0.2"/>
<path d="M1271.7 1070.25L1272.23 1072.22L1274.2 1072.75L1272.23 1073.28L1271.7 1075.25L1271.17 1073.28L1269.2 1072.75L1271.17 1072.22L1271.7 1070.25Z" fill="#D9D9D9" fill-opacity="0.2"/>
<path d="M408.374 91.0828L408.904 93.0524L410.874 93.5828L408.904 94.1131L408.374 96.0828L407.844 94.1131L405.874 93.5828L407.844 93.0524L408.374 91.0828Z" fill="#D9D9D9"/>
<path d="M974.581 580.751L975.111 582.721L977.081 583.251L975.111 583.781L974.581 585.751L974.05 583.781L972.081 583.251L974.05 582.721L974.581 580.751Z" fill="#D9D9D9" fill-opacity="0.2"/>
<path d="M1184.25 881.977L1184.78 883.947L1186.75 884.477L1184.78 885.008L1184.25 886.977L1183.72 885.008L1181.75 884.477L1183.72 883.947L1184.25 881.977Z" fill="#D9D9D9" fill-opacity="0.2"/>
<path d="M343.758 94.7405L344.288 96.7101L346.258 97.2405L344.288 97.7708L343.758 99.7405L343.227 97.7708L341.258 97.2405L343.227 96.7101L343.758 94.7405Z" fill="#D9D9D9" fill-opacity="0.2"/>
<path d="M743.664 1031.04L744.195 1033.01L746.164 1033.54L744.195 1034.07L743.664 1036.04L743.134 1034.07L741.164 1033.54L743.134 1033.01L743.664 1031.04Z" fill="#D9D9D9" fill-opacity="0.2"/>
<path d="M360 649.358L360.53 651.328L362.5 651.858L360.53 652.388L360 654.358L359.47 652.388L357.5 651.858L359.47 651.328L360 649.358Z" fill="#D9D9D9" fill-opacity="0.2"/>
<path d="M667.077 224.707L667.607 226.676L669.577 227.207L667.607 227.737L667.077 229.707L666.546 227.737L664.577 227.207L666.546 226.676L667.077 224.707Z" fill="#D9D9D9" fill-opacity="0.2"/>
<path d="M906.067 195.29L906.598 197.26L908.567 197.79L906.598 198.32L906.067 200.29L905.537 198.32L903.567 197.79L905.537 197.26L906.067 195.29Z" fill="#D9D9D9" fill-opacity="0.2"/>
<path d="M552.938 111.177L553.469 113.147L555.438 113.677L553.469 114.208L552.938 116.177L552.408 114.208L550.438 113.677L552.408 113.147L552.938 111.177Z" fill="#D9D9D9"/>
<path d="M1187.38 391.649L1187.91 393.618L1189.88 394.149L1187.91 394.679L1187.38 396.649L1186.85 394.679L1184.88 394.149L1186.85 393.618L1187.38 391.649Z" fill="#D9D9D9"/>
<path d="M1265.86 1035.65L1266.39 1037.62L1268.36 1038.15L1266.39 1038.68L1265.86 1040.65L1265.33 1038.68L1263.36 1038.15L1265.33 1037.62L1265.86 1035.65Z" fill="#D9D9D9" fill-opacity="0.2"/>
<path d="M548.364 387.582L548.894 389.551L550.864 390.082L548.894 390.612L548.364 392.582L547.833 390.612L545.864 390.082L547.833 389.551L548.364 387.582Z" fill="#D9D9D9" fill-opacity="0.2"/>
<path d="M1261.92 681.154L1262.45 683.124L1264.42 683.654L1262.45 684.184L1261.92 686.154L1261.39 684.184L1259.42 683.654L1261.39 683.124L1261.92 681.154Z" fill="#D9D9D9" fill-opacity="0.2"/>
<path d="M222.735 768.113L223.265 770.082L225.235 770.613L223.265 771.143L222.735 773.113L222.204 771.143L220.235 770.613L222.204 770.082L222.735 768.113Z" fill="#D9D9D9" fill-opacity="0.2"/>
<path d="M253.069 107.665L253.599 109.635L255.569 110.165L253.599 110.695L253.069 112.665L252.539 110.695L250.569 110.165L252.539 109.635L253.069 107.665Z" fill="#D9D9D9" fill-opacity="0.2"/>
<path d="M314.77 1021.36L315.3 1023.33L317.27 1023.86L315.3 1024.39L314.77 1026.36L314.24 1024.39L312.27 1023.86L314.24 1023.33L314.77 1021.36Z" fill="#D9D9D9" fill-opacity="0.2"/>
<path d="M168.61 990.429L169.141 992.399L171.11 992.929L169.141 993.46L168.61 995.429L168.08 993.46L166.11 992.929L168.08 992.399L168.61 990.429Z" fill="#D9D9D9" fill-opacity="0.2"/>
<path d="M553.282 746.364L553.812 748.334L555.782 748.864L553.812 749.395L553.282 751.364L552.751 749.395L550.782 748.864L552.751 748.334L553.282 746.364Z" fill="#D9D9D9" fill-opacity="0.2"/>
<path d="M296.313 436.456L296.844 438.425L298.813 438.956L296.844 439.486L296.313 441.456L295.783 439.486L293.813 438.956L295.783 438.425L296.313 436.456Z" fill="#D9D9D9"/>
<path d="M1460.58 609.1L1461.11 611.07L1463.08 611.6L1461.11 612.131L1460.58 614.1L1460.05 612.131L1458.08 611.6L1460.05 611.07L1460.58 609.1Z" fill="#D9D9D9" fill-opacity="0.2"/>
<path d="M310.649 744.014L311.18 745.983L313.149 746.514L311.18 747.044L310.649 749.014L310.119 747.044L308.149 746.514L310.119 745.983L310.649 744.014Z" fill="#808080"/>
<path d="M574.459 469.497L574.99 471.466L576.959 471.997L574.99 472.527L574.459 474.497L573.929 472.527L571.959 471.997L573.929 471.466L574.459 469.497Z" fill="#D9D9D9" fill-opacity="0.2"/>
<path d="M1615.42 382.384L1615.95 384.354L1617.92 384.884L1615.95 385.414L1615.42 387.384L1614.89 385.414L1612.92 384.884L1614.89 384.354L1615.42 382.384Z" fill="#D9D9D9" fill-opacity="0.2"/>
<path d="M1114.84 378.572L1115.37 380.542L1117.34 381.072L1115.37 381.603L1114.84 383.572L1114.31 381.603L1112.34 381.072L1114.31 380.542L1114.84 378.572Z" fill="#D9D9D9" fill-opacity="0.2"/>
<path d="M53.0437 466.36L53.574 468.33L55.5437 468.86L53.574 469.391L53.0437 471.36L52.5134 469.391L50.5437 468.86L52.5134 468.33L53.0437 466.36Z" fill="#D9D9D9" fill-opacity="0.2"/>
<path d="M1401.52 5.86328L1402.05 7.83295L1404.02 8.36328L1402.05 8.89361L1401.52 10.8633L1400.99 8.89361L1399.02 8.36328L1400.99 7.83295L1401.52 5.86328Z" fill="#D9D9D9" fill-opacity="0.2"/>
<path d="M995.1 276.298L995.63 278.268L997.6 278.798L995.63 279.328L995.1 281.298L994.57 279.328L992.6 278.798L994.57 278.268L995.1 276.298Z" fill="#D9D9D9" fill-opacity="0.2"/>
<path d="M433.724 761.822L434.254 763.791L436.224 764.322L434.254 764.852L433.724 766.822L433.194 764.852L431.224 764.322L433.194 763.791L433.724 761.822Z" fill="#D9D9D9" fill-opacity="0.2"/>
<path d="M384.833 172.626L385.364 174.596L387.333 175.126L385.364 175.657L384.833 177.626L384.303 175.657L382.333 175.126L384.303 174.596L384.833 172.626Z" fill="#D9D9D9" fill-opacity="0.2"/>
<path d="M893.044 835.008L893.574 836.977L895.544 837.508L893.574 838.038L893.044 840.008L892.513 838.038L890.544 837.508L892.513 836.977L893.044 835.008Z" fill="#D9D9D9" fill-opacity="0.2"/>
<path d="M1268.65 56.0598L1269.18 58.0295L1271.15 58.5598L1269.18 59.0901L1268.65 61.0598L1268.12 59.0901L1266.15 58.5598L1268.12 58.0295L1268.65 56.0598Z" fill="#D9D9D9"/>
<path d="M1490.6 867.743L1491.13 869.713L1493.1 870.243L1491.13 870.774L1490.6 872.743L1490.07 870.774L1488.1 870.243L1490.07 869.713L1490.6 867.743Z" fill="#D9D9D9" fill-opacity="0.2"/>
<path d="M498.87 1094.22L499.4 1096.19L501.37 1096.72L499.4 1097.25L498.87 1099.22L498.34 1097.25L496.37 1096.72L498.34 1096.19L498.87 1094.22Z" fill="#D9D9D9" fill-opacity="0.2"/>
<path d="M799.755 450.887L800.285 452.857L802.255 453.387L800.285 453.918L799.755 455.887L799.225 453.918L797.255 453.387L799.225 452.857L799.755 450.887Z" fill="#D9D9D9" fill-opacity="0.2"/>
<path d="M307.59 428.053L308.121 430.022L310.09 430.553L308.121 431.083L307.59 433.053L307.06 431.083L305.09 430.553L307.06 430.022L307.59 428.053Z" fill="#D9D9D9" fill-opacity="0.2"/>
<path d="M88.9521 668.316L89.4825 670.286L91.4521 670.816L89.4825 671.347L88.9521 673.316L88.4218 671.347L86.4521 670.816L88.4218 670.286L88.9521 668.316Z" fill="#D9D9D9" fill-opacity="0.2"/>
<path d="M610.142 762.732L610.672 764.702L612.642 765.232L610.672 765.762L610.142 767.732L609.612 765.762L607.642 765.232L609.612 764.702L610.142 762.732Z" fill="#D9D9D9" fill-opacity="0.2"/>
<path d="M217.716 32.8147L218.246 34.7844L220.216 35.3147L218.246 35.845L217.716 37.8147L217.185 35.845L215.216 35.3147L217.185 34.7844L217.716 32.8147Z" fill="#D9D9D9" fill-opacity="0.2"/>
<path d="M230.263 918.553L230.793 920.523L232.763 921.053L230.793 921.584L230.263 923.553L229.733 921.584L227.763 921.053L229.733 920.523L230.263 918.553Z" fill="#D9D9D9"/>
<path d="M184.801 753.114L185.331 755.084L187.301 755.614L185.331 756.144L184.801 758.114L184.27 756.144L182.301 755.614L184.27 755.084L184.801 753.114Z" fill="#D9D9D9"/>
<path d="M147.246 889.441L147.776 891.411L149.746 891.941L147.776 892.471L147.246 894.441L146.716 892.471L144.746 891.941L146.716 891.411L147.246 889.441Z" fill="#D9D9D9" fill-opacity="0.2"/>
<path d="M1507.58 65.2429L1508.11 67.2126L1510.08 67.7429L1508.11 68.2733L1507.58 70.2429L1507.05 68.2733L1505.08 67.7429L1507.05 67.2126L1507.58 65.2429Z" fill="#D9D9D9" fill-opacity="0.2"/>
<path d="M696.222 374.209L696.752 376.179L698.722 376.709L696.752 377.24L696.222 379.209L695.692 377.24L693.722 376.709L695.692 376.179L696.222 374.209Z" fill="#D9D9D9" fill-opacity="0.2"/>
<path d="M822.468 538.878L822.998 540.847L824.968 541.378L822.998 541.908L822.468 543.878L821.937 541.908L819.968 541.378L821.937 540.847L822.468 538.878Z" fill="#808080"/>
<path d="M492.787 262.268L493.317 264.237L495.287 264.768L493.317 265.298L492.787 267.268L492.257 265.298L490.287 264.768L492.257 264.237L492.787 262.268Z" fill="#D9D9D9" fill-opacity="0.2"/>
<path d="M75.248 381.768L75.7784 383.737L77.748 384.268L75.7784 384.798L75.248 386.768L74.7177 384.798L72.748 384.268L74.7177 383.737L75.248 381.768Z" fill="#D9D9D9" fill-opacity="0.2"/>
<path d="M1436.34 885.05L1436.87 887.02L1438.84 887.55L1436.87 888.081L1436.34 890.05L1435.81 888.081L1433.84 887.55L1435.81 887.02L1436.34 885.05Z" fill="#808080"/>
<path d="M803.497 719.631L804.027 721.601L805.997 722.131L804.027 722.662L803.497 724.631L802.966 722.662L800.997 722.131L802.966 721.601L803.497 719.631Z" fill="#D9D9D9" fill-opacity="0.2"/>
<path d="M1172.08 409.046L1172.61 411.015L1174.58 411.546L1172.61 412.076L1172.08 414.046L1171.55 412.076L1169.58 411.546L1171.55 411.015L1172.08 409.046Z" fill="#D9D9D9" fill-opacity="0.2"/>
<path d="M1691.42 633.464L1691.95 635.434L1693.92 635.964L1691.95 636.494L1691.42 638.464L1690.89 636.494L1688.92 635.964L1690.89 635.434L1691.42 633.464Z" fill="#D9D9D9" fill-opacity="0.2"/>
<path d="M1386.72 541.158L1387.25 543.127L1389.22 543.658L1387.25 544.188L1386.72 546.158L1386.19 544.188L1384.22 543.658L1386.19 543.127L1386.72 541.158Z" fill="#D9D9D9" fill-opacity="0.2"/>
<path d="M461.382 458.159L461.912 460.129L463.882 460.659L461.912 461.19L461.382 463.159L460.852 461.19L458.882 460.659L460.852 460.129L461.382 458.159Z" fill="#D9D9D9"/>
<path d="M824.298 286.802L824.829 288.772L826.798 289.302L824.829 289.833L824.298 291.802L823.768 289.833L821.798 289.302L823.768 288.772L824.298 286.802Z" fill="#D9D9D9"/>
<path d="M1051.97 454.588L1052.5 456.557L1054.47 457.088L1052.5 457.618L1051.97 459.588L1051.44 457.618L1049.47 457.088L1051.44 456.557L1051.97 454.588Z" fill="#D9D9D9" fill-opacity="0.2"/>
<path d="M746.38 519.878L746.91 521.847L748.88 522.378L746.91 522.908L746.38 524.878L745.85 522.908L743.88 522.378L745.85 521.847L746.38 519.878Z" fill="#D9D9D9" fill-opacity="0.2"/>
<path d="M88.5938 416.691L89.1241 418.661L91.0938 419.191L89.1241 419.722L88.5938 421.691L88.0634 419.722L86.0938 419.191L88.0634 418.661L88.5938 416.691Z" fill="#D9D9D9" fill-opacity="0.2"/>
<path d="M936.763 862.89L937.293 864.859L939.263 865.39L937.293 865.92L936.763 867.89L936.232 865.92L934.263 865.39L936.232 864.859L936.763 862.89Z" fill="#D9D9D9" fill-opacity="0.2"/>
<path d="M1481.22 806.181L1481.75 808.151L1483.72 808.681L1481.75 809.212L1481.22 811.181L1480.69 809.212L1478.72 808.681L1480.69 808.151L1481.22 806.181Z" fill="#D9D9D9"/>
<path d="M1144.56 1018.23L1145.09 1020.2L1147.06 1020.73L1145.09 1021.26L1144.56 1023.23L1144.03 1021.26L1142.06 1020.73L1144.03 1020.2L1144.56 1018.23Z" fill="#D9D9D9" fill-opacity="0.2"/>
<path d="M110.259 512.953L110.789 514.923L112.759 515.453L110.789 515.984L110.259 517.953L109.729 515.984L107.759 515.453L109.729 514.923L110.259 512.953Z" fill="#808080"/>
<path d="M1673.03 803.893L1673.56 805.862L1675.53 806.393L1673.56 806.923L1673.03 808.893L1672.5 806.923L1670.53 806.393L1672.5 805.862L1673.03 803.893Z" fill="#D9D9D9" fill-opacity="0.2"/>
<path d="M1236.67 1092.98L1237.2 1094.95L1239.17 1095.48L1237.2 1096.01L1236.67 1097.98L1236.14 1096.01L1234.17 1095.48L1236.14 1094.95L1236.67 1092.98Z" fill="#D9D9D9"/>
<path d="M1186.57 1052.02L1187.1 1053.99L1189.07 1054.52L1187.1 1055.05L1186.57 1057.02L1186.04 1055.05L1184.07 1054.52L1186.04 1053.99L1186.57 1052.02Z" fill="#D9D9D9"/>
<path d="M654.935 103.247L655.465 105.217L657.435 105.747L655.465 106.277L654.935 108.247L654.404 106.277L652.435 105.747L654.404 105.217L654.935 103.247Z" fill="#D9D9D9" fill-opacity="0.2"/>
<path d="M1592.49 1078.4L1593.02 1080.37L1594.99 1080.9L1593.02 1081.43L1592.49 1083.4L1591.96 1081.43L1589.99 1080.9L1591.96 1080.37L1592.49 1078.4Z" fill="#D9D9D9" fill-opacity="0.2"/>
<path d="M216.025 691.542L216.555 693.511L218.525 694.042L216.555 694.572L216.025 696.542L215.495 694.572L213.525 694.042L215.495 693.511L216.025 691.542Z" fill="#D9D9D9" fill-opacity="0.2"/>
<path d="M867.914 1081.71L868.444 1083.68L870.414 1084.21L868.444 1084.74L867.914 1086.71L867.383 1084.74L865.414 1084.21L867.383 1083.68L867.914 1081.71Z" fill="#D9D9D9"/>
<path d="M366.786 559.877L367.316 561.847L369.286 562.377L367.316 562.908L366.786 564.877L366.255 562.908L364.286 562.377L366.255 561.847L366.786 559.877Z" fill="#D9D9D9" fill-opacity="0.2"/>
<path d="M483.043 111.26L483.574 113.23L485.543 113.76L483.574 114.291L483.043 116.26L482.513 114.291L480.543 113.76L482.513 113.23L483.043 111.26Z" fill="#D9D9D9" fill-opacity="0.2"/>
<path d="M480.167 181.558L480.697 183.528L482.667 184.058L480.697 184.588L480.167 186.558L479.636 184.588L477.667 184.058L479.636 183.528L480.167 181.558Z" fill="#D9D9D9" fill-opacity="0.2"/>
<path d="M510.94 124.692L511.47 126.662L513.44 127.192L511.47 127.723L510.94 129.692L510.409 127.723L508.44 127.192L510.409 126.662L510.94 124.692Z" fill="#D9D9D9" fill-opacity="0.2"/>
<path d="M648.882 807.67L649.413 809.64L651.382 810.17L649.413 810.7L648.882 812.67L648.352 810.7L646.382 810.17L648.352 809.64L648.882 807.67Z" fill="#808080"/>
<path d="M669.568 498.13L670.098 500.1L672.068 500.63L670.098 501.16L669.568 503.13L669.038 501.16L667.068 500.63L669.038 500.1L669.568 498.13Z" fill="#D9D9D9"/>
<path d="M1517.29 849.857L1517.82 851.827L1519.79 852.357L1517.82 852.888L1517.29 854.857L1516.76 852.888L1514.79 852.357L1516.76 851.827L1517.29 849.857Z" fill="#D9D9D9" fill-opacity="0.2"/>
<path d="M1068.98 142.777L1069.51 144.747L1071.48 145.277L1069.51 145.808L1068.98 147.777L1068.45 145.808L1066.48 145.277L1068.45 144.747L1068.98 142.777Z" fill="#D9D9D9"/>
<path d="M297.663 908.387L298.193 910.357L300.163 910.887L298.193 911.418L297.663 913.387L297.133 911.418L295.163 910.887L297.133 910.357L297.663 908.387Z" fill="#D9D9D9" fill-opacity="0.2"/>
<path d="M197.136 1096.15L197.666 1098.12L199.636 1098.65L197.666 1099.18L197.136 1101.15L196.605 1099.18L194.636 1098.65L196.605 1098.12L197.136 1096.15Z" fill="#D9D9D9" fill-opacity="0.2"/>
<path d="M1239.56 1034.05L1240.09 1036.02L1242.06 1036.55L1240.09 1037.08L1239.56 1039.05L1239.03 1037.08L1237.06 1036.55L1239.03 1036.02L1239.56 1034.05Z" fill="#D9D9D9" fill-opacity="0.2"/>
<path d="M1340.16 569.443L1340.69 571.413L1342.66 571.943L1340.69 572.473L1340.16 574.443L1339.63 572.473L1337.66 571.943L1339.63 571.413L1340.16 569.443Z" fill="#D9D9D9" fill-opacity="0.2"/>
<path d="M373.799 1078.51L374.33 1080.48L376.299 1081.01L374.33 1081.55L373.799 1083.51L373.269 1081.55L371.299 1081.01L373.269 1080.48L373.799 1078.51Z" fill="#D9D9D9" fill-opacity="0.2"/>
<path d="M38.5703 711.586L39.1006 713.556L41.0703 714.086L39.1006 714.617L38.5703 716.586L38.04 714.617L36.0703 714.086L38.04 713.556L38.5703 711.586Z" fill="#D9D9D9" fill-opacity="0.2"/>
<path d="M22.7935 548.613L23.3238 550.583L25.2935 551.113L23.3238 551.644L22.7935 553.613L22.2631 551.644L20.2935 551.113L22.2631 550.583L22.7935 548.613Z" fill="#D9D9D9" fill-opacity="0.2"/>
<path d="M797.734 353.955L798.265 355.924L800.234 356.455L798.265 356.985L797.734 358.955L797.204 356.985L795.234 356.455L797.204 355.924L797.734 353.955Z" fill="#D9D9D9" fill-opacity="0.2"/>
<path d="M1614.01 937.165L1614.54 939.135L1616.51 939.665L1614.54 940.196L1614.01 942.165L1613.48 940.196L1611.51 939.665L1613.48 939.135L1614.01 937.165Z" fill="#D9D9D9" fill-opacity="0.2"/>
<path d="M1068.44 62.2073L1068.97 64.1769L1070.94 64.7073L1068.97 65.2376L1068.44 67.2073L1067.91 65.2376L1065.94 64.7073L1067.91 64.1769L1068.44 62.2073Z" fill="#D9D9D9" fill-opacity="0.2"/>
<path d="M1325.19 738.787L1325.72 740.757L1327.69 741.287L1325.72 741.817L1325.19 743.787L1324.66 741.817L1322.69 741.287L1324.66 740.757L1325.19 738.787Z" fill="#D9D9D9" fill-opacity="0.2"/>
<path d="M116.244 29.3855L116.774 31.3552L118.744 31.8855L116.774 32.4158L116.244 34.3855L115.714 32.4158L113.744 31.8855L115.714 31.3552L116.244 29.3855Z" fill="#D9D9D9" fill-opacity="0.2"/>
<path d="M1341.67 128.86L1342.2 130.83L1344.17 131.36L1342.2 131.89L1341.67 133.86L1341.14 131.89L1339.17 131.36L1341.14 130.83L1341.67 128.86Z" fill="#D9D9D9" fill-opacity="0.2"/>
<path d="M1614.38 576.426L1614.91 578.396L1616.88 578.926L1614.91 579.456L1614.38 581.426L1613.85 579.456L1611.88 578.926L1613.85 578.396L1614.38 576.426Z" fill="#D9D9D9" fill-opacity="0.2"/>
<path d="M1564.06 1018.38L1564.6 1020.35L1566.56 1020.88L1564.6 1021.41L1564.06 1023.38L1563.53 1021.41L1561.56 1020.88L1563.53 1020.35L1564.06 1018.38Z" fill="#D9D9D9" fill-opacity="0.2"/>
<path d="M1018.29 880.772L1018.82 882.742L1020.79 883.272L1018.82 883.802L1018.29 885.772L1017.76 883.802L1015.79 883.272L1017.76 882.742L1018.29 880.772Z" fill="#D9D9D9"/>
<g filter="url(#filter0_f_93_2)">
<path fillRule="evenodd" clip-rule="evenodd" d="M866.227 135.661C1065.36 144.959 1178.43 267.989 1303.27 361.822C1408.64 441.028 1498.93 523.977 1517.05 624.856C1537.66 739.637 1556.51 877.708 1409.18 951.634C1264.66 1024.14 1054.17 956.674 866.227 951.402C694.222 946.577 505.458 987.744 371.634 922.529C230.298 853.654 199.024 734.294 196.136 624.856C193.192 513.313 237.762 403.652 355.668 317.574C486.452 222.097 661.245 126.089 866.227 135.661Z" fill="url(#paint0_radial_93_2)" fill-opacity="0.6"/>
</g>
<defs>
<filter id="filter0_f_93_2" x="96" y="35" width="1535" height="1050" filterUnits="userSpaceOnUse" color-interpolation-filters="sRGB">
<feFlood flood-opacity="0" result="BackgroundImageFix"/>
<feBlend mode="normal" in="SourceGraphic" in2="BackgroundImageFix" result="shape"/>
<feGaussianBlur stdDeviation="50" result="effect1_foregroundBlur_93_2"/>
</filter>
<radialGradient id="paint0_radial_93_2" cx="0" cy="0" r="1" gradientUnits="userSpaceOnUse" gradientTransform="translate(863.5 560) rotate(90) scale(425 667.5)">
<stop stop-color="#43156E"/>
<stop offset="1" stop-color="#43156E" stop-opacity="0"/>
</radialGradient>
</defs>
</svg>