<svg xmlns="http://www.w3.org/2000/svg" viewBox="0 0 500 500"><g id="freepik--Elements--inject-10"><path d="M81.9,115.94a1.1,1.1,0,0,1,.09.27l.22.8a11.55,11.55,0,0,0,.41,1.3c.18.5.37,1.09.66,1.72l.44,1,.57,1.08a10.52,10.52,0,0,0,.66,1.15c.25.38.47.8.77,1.2a25.89,25.89,0,0,0,11.33,9.25,24.34,24.34,0,0,0,4.31,1.35,41.49,41.49,0,0,0,4.75.66c3.27.32,6.81.5,10.2,1.86a24.81,24.81,0,0,1,8.88,6.65,32.28,32.28,0,0,1,6.12,9.28,17.22,17.22,0,0,1,1.22,5.18,19.44,19.44,0,0,1-.32,5.08,61.35,61.35,0,0,1-2.7,9,42.43,42.43,0,0,0-2.14,7.84,16.29,16.29,0,0,0,.25,6.64,12.37,12.37,0,0,0,2.17,4.52,9.1,9.1,0,0,0,2.34,2.16c.61.39,1,.54,1,.56a6.46,6.46,0,0,1-1-.5,9,9,0,0,1-2.4-2.14,12.24,12.24,0,0,1-2.25-4.55,16.48,16.48,0,0,1-.31-6.73,43.32,43.32,0,0,1,2.12-7.89,62.71,62.71,0,0,0,2.66-9,19.85,19.85,0,0,0,.3-5,16.6,16.6,0,0,0-1.21-5.07,32.2,32.2,0,0,0-6.06-9.19,24.5,24.5,0,0,0-8.76-6.56c-3.31-1.35-6.82-1.53-10.1-1.86a45.07,45.07,0,0,1-4.78-.68A24.67,24.67,0,0,1,96.94,134a25.78,25.78,0,0,1-11.37-9.41c-.3-.4-.53-.82-.77-1.21a12.55,12.55,0,0,1-.65-1.17l-.56-1.08-.43-1a16,16,0,0,1-.64-1.74,11,11,0,0,1-.37-1.31c-.08-.35-.15-.62-.19-.81A2.22,2.22,0,0,1,81.9,115.94Z" style="fill:#455a64"></path><path d="M102.23,105.34l.22.2.62.6c.27.27.57.63,1,1s.76.92,1.16,1.52a21.48,21.48,0,0,1,2.47,4.64,22.28,22.28,0,0,1,1.51,6.79,23.26,23.26,0,0,1-.15,4.05,29.17,29.17,0,0,1-.94,4.3c-.83,2.92-2,5.92-2.88,9.21a23.42,23.42,0,0,0-.73,5.13,21.88,21.88,0,0,0,.55,5.37A25,25,0,0,0,110,158.35a28.38,28.38,0,0,0,8.77,7.16,34.07,34.07,0,0,0,10,3.48c3.34.62,6.58.78,9.58,1.24a24.17,24.17,0,0,1,8.06,2.44,18.4,18.4,0,0,1,8,9,18.37,18.37,0,0,1,1,3.17c.06.37.1.65.14.86a2.08,2.08,0,0,1,0,.29s0-.1-.07-.29-.1-.48-.17-.84a20.09,20.09,0,0,0-1-3.14,18.89,18.89,0,0,0-2.73-4.43,18,18,0,0,0-5.3-4.36,24,24,0,0,0-8-2.37c-3-.45-6.23-.6-9.6-1.21a34.81,34.81,0,0,1-10.1-3.5,28.74,28.74,0,0,1-8.88-7.24,25.62,25.62,0,0,1-5-10.29,23.07,23.07,0,0,1-.54-5.45,23.8,23.8,0,0,1,.74-5.2c.85-3.32,2.08-6.32,2.92-9.22a28.9,28.9,0,0,0,1-4.25,21.94,21.94,0,0,0,.17-4,22.46,22.46,0,0,0-3.85-11.36c-.39-.61-.8-1.09-1.13-1.54s-.66-.78-.92-1l-.59-.63A2.35,2.35,0,0,1,102.23,105.34Z" style="fill:#455a64"></path><path d="M151.92,177a5.38,5.38,0,0,1-.78.71c-.52.45-1.29,1.07-2.26,1.81a90.21,90.21,0,0,1-7.84,5.42,92.36,92.36,0,0,1-8.37,4.57c-1.1.53-2,.94-2.62,1.2a5,5,0,0,1-1,.38,7.45,7.45,0,0,1,.93-.5l2.58-1.29c2.17-1.1,5.13-2.7,8.29-4.65s5.92-3.88,7.88-5.32l2.31-1.72A6.84,6.84,0,0,1,151.92,177Z" style="fill:#455a64"></path><path d="M146.55,172.8a4.57,4.57,0,0,1-.79.47l-2.18,1.18c-1.84,1-4.36,2.42-7.09,4.09s-5.13,3.29-6.85,4.48l-2,1.42a6.23,6.23,0,0,1-.77.49,4.86,4.86,0,0,1,.69-.6c.46-.37,1.14-.88,2-1.5,1.69-1.25,4.09-2.89,6.82-4.57s5.28-3.07,7.15-4c.94-.48,1.7-.85,2.24-1.09A5.34,5.34,0,0,1,146.55,172.8Z" style="fill:#455a64"></path><path d="M138.85,171.18a11,11,0,0,1-1.55,1.13c-1,.65-2.35,1.53-3.89,2.46s-2.95,1.72-4,2.28a10.89,10.89,0,0,1-1.72.83,11.48,11.48,0,0,1,1.6-1l3.94-2.36,3.94-2.37A10.57,10.57,0,0,1,138.85,171.18Z" style="fill:#455a64"></path><path d="M131.67,162.68a6.34,6.34,0,0,1-1.17.85l-2.89,1.94-2.87,2a6.63,6.63,0,0,1-1.22.77,5.32,5.32,0,0,1,1.08-1c.7-.56,1.69-1.29,2.82-2.06s2.18-1.42,3-1.86A5.49,5.49,0,0,1,131.67,162.68Z" style="fill:#455a64"></path><path d="M131.1,155.1c0,.05-.85.51-2.22,1.3s-3.24,1.94-5.21,3.32-3.69,2.76-4.9,3.78a24.83,24.83,0,0,1-2,1.64,3.62,3.62,0,0,1,.46-.52c.31-.32.78-.76,1.37-1.3a50.95,50.95,0,0,1,10.15-7.13c.7-.37,1.28-.65,1.68-.84A2.71,2.71,0,0,1,131.1,155.1Z" style="fill:#455a64"></path><path d="M127.35,149.22c.05.08-3.46,2.61-7.84,5.67s-8,5.46-8,5.39,3.45-2.62,7.83-5.67S127.29,149.14,127.35,149.22Z" style="fill:#455a64"></path><path d="M124.36,142.59a3.93,3.93,0,0,1-.68.5c-.5.34-1.13.77-1.89,1.27-1.6,1.07-3.8,2.57-6.19,4.27s-4.51,3.3-6,4.46l-1.82,1.38a4,4,0,0,1-.69.47,3.63,3.63,0,0,1,.61-.58c.4-.35,1-.85,1.75-1.46,1.5-1.21,3.6-2.84,6-4.54s4.62-3.18,6.25-4.2c.82-.51,1.49-.91,2-1.18A3.74,3.74,0,0,1,124.36,142.59Z" style="fill:#455a64"></path><path d="M118.19,138.92c.06.07-2.92,2.23-6.64,4.82s-6.79,4.61-6.85,4.54,2.93-2.24,6.65-4.82S118.14,138.84,118.19,138.92Z" style="fill:#455a64"></path><path d="M111.72,135.22a28.31,28.31,0,0,1-3.42,2.95,30.66,30.66,0,0,1-3.63,2.69,30.56,30.56,0,0,1,3.42-3A30.66,30.66,0,0,1,111.72,135.22Z" style="fill:#455a64"></path><path d="M107.36,125.93a11.1,11.1,0,0,1-1.46,1.35c-.93.79-2.25,1.86-3.75,3s-2.89,2.08-3.92,2.75a10.1,10.1,0,0,1-1.71,1,13,13,0,0,1,1.58-1.21c1-.72,2.36-1.71,3.85-2.82s2.83-2.15,3.8-2.9A12.43,12.43,0,0,1,107.36,125.93Z" style="fill:#455a64"></path><path d="M109.24,119.61a4,4,0,0,1-.67.52c-.43.32-1.08.76-1.88,1.29-1.61,1.07-3.87,2.5-6.42,4s-4.92,2.72-6.65,3.58c-.86.43-1.57.77-2.06,1a3.73,3.73,0,0,1-.78.32,4.52,4.52,0,0,1,.72-.43l2-1.09c1.7-.91,4-2.19,6.59-3.67s4.82-2.86,6.46-3.88l1.94-1.2A3.79,3.79,0,0,1,109.24,119.61Z" style="fill:#455a64"></path><path d="M106.24,112.86a5.47,5.47,0,0,1-.73.55c-.48.34-1.18.82-2.06,1.41-1.75,1.16-4.19,2.74-6.92,4.43s-5.22,3.17-7,4.21c-.91.52-1.65.94-2.17,1.22a5.77,5.77,0,0,1-.82.4,4.83,4.83,0,0,1,.75-.52l2.12-1.31,7-4.29,7-4.34,2.12-1.32A4.41,4.41,0,0,1,106.24,112.86Z" style="fill:#455a64"></path><path d="M369.36,312.21c-.05.05-.79-.69-2.23-1.92-.72-.61-1.61-1.35-2.69-2.14a30.22,30.22,0,0,0-3.84-2.4,16.37,16.37,0,0,0-2.4-1,7.91,7.91,0,0,0-2.7-.48,2.91,2.91,0,0,0-1.31.31,2,2,0,0,0-.9.95,3.3,3.3,0,0,0-.27,1.42,7.1,7.1,0,0,0,.2,1.56,14.86,14.86,0,0,0,1.16,3.13,28.91,28.91,0,0,0,1.77,3.07,42.59,42.59,0,0,0,10.36,10.67,26.58,26.58,0,0,0,3,1.86,14.63,14.63,0,0,0,3.1,1.26,7.05,7.05,0,0,0,1.55.25,3.32,3.32,0,0,0,1.42-.23,2,2,0,0,0,1-.87,3,3,0,0,0,.35-1.3,7.77,7.77,0,0,0-.4-2.72,17.56,17.56,0,0,0-1-2.43,31.14,31.14,0,0,0-2.29-3.91c-.76-1.1-1.46-2-2.06-2.75-1.18-1.47-1.9-2.24-1.85-2.29s.22.15.59.5.88.87,1.51,1.58a34.39,34.39,0,0,1,2.19,2.69,29.05,29.05,0,0,1,2.44,3.92,19.76,19.76,0,0,1,1.05,2.5,8.49,8.49,0,0,1,.47,3,3.55,3.55,0,0,1-.42,1.61,2.69,2.69,0,0,1-1.3,1.19,4.06,4.06,0,0,1-1.74.31,7.77,7.77,0,0,1-1.73-.25,15.7,15.7,0,0,1-3.27-1.3A27.26,27.26,0,0,1,366,326a42.14,42.14,0,0,1-10.57-10.9,27,27,0,0,1-1.81-3.16,15.81,15.81,0,0,1-1.19-3.31,7.24,7.24,0,0,1-.2-1.73,3.84,3.84,0,0,1,.36-1.73,2.71,2.71,0,0,1,1.23-1.27,3.65,3.65,0,0,1,1.62-.37,8.45,8.45,0,0,1,2.94.56,18,18,0,0,1,2.46,1.13,28.72,28.72,0,0,1,3.84,2.55c1.07.84,1.94,1.61,2.63,2.27s1.2,1.19,1.53,1.56S369.38,312.19,369.36,312.21Z" style="fill:#455a64"></path><path d="M359.77,314.61c.06,0-.23,1-.61,2.78-.19.9-.4,2-.57,3.28a28,28,0,0,0-.24,4.37,15.73,15.73,0,0,0,.26,2.51,7.48,7.48,0,0,0,.89,2.5,3,3,0,0,0,.9.95,2.12,2.12,0,0,0,1.23.34A3.3,3.3,0,0,0,363,331a6.34,6.34,0,0,0,1.26-.85,14.3,14.3,0,0,0,2.19-2.38,25.35,25.35,0,0,0,1.83-2.89,39.68,39.68,0,0,0,4.35-13.7,26.4,26.4,0,0,0,.17-3.41,14.46,14.46,0,0,0-.41-3.21,7.31,7.31,0,0,0-.54-1.42,3.24,3.24,0,0,0-.88-1.08,2.08,2.08,0,0,0-1.2-.44,3,3,0,0,0-1.28.26,7.57,7.57,0,0,0-2.17,1.52,16.2,16.2,0,0,0-1.66,1.91A27.35,27.35,0,0,0,362.3,309c-.6,1.14-1.06,2.16-1.42,3-.72,1.69-1.05,2.65-1.11,2.63a2.22,2.22,0,0,1,.15-.73c.13-.47.34-1.15.65-2s.74-1.91,1.31-3.09a26.63,26.63,0,0,1,2.27-3.85,14.77,14.77,0,0,1,1.69-2,8,8,0,0,1,2.35-1.71,3.71,3.71,0,0,1,1.57-.33,2.83,2.83,0,0,1,1.62.56,4.06,4.06,0,0,1,1.1,1.31,7.41,7.41,0,0,1,.62,1.58,14.65,14.65,0,0,1,.46,3.38,24.71,24.71,0,0,1-.15,3.53,39,39,0,0,1-4.45,14,25.09,25.09,0,0,1-1.91,3,14.53,14.53,0,0,1-2.33,2.49,7.32,7.32,0,0,1-1.41.93,3.94,3.94,0,0,1-1.66.44,2.86,2.86,0,0,1-1.64-.47,3.84,3.84,0,0,1-1.1-1.18,8.07,8.07,0,0,1-.93-2.75,15,15,0,0,1-.22-2.61,25.66,25.66,0,0,1,.37-4.46,32.73,32.73,0,0,1,.71-3.28c.24-.89.47-1.57.63-2A2.29,2.29,0,0,1,359.77,314.61Z" style="fill:#455a64"></path><path d="M363.05,310c0,.07-1,.33-2.69.95-.86.31-1.9.71-3.09,1.24a27.78,27.78,0,0,0-3.84,2.1,14.66,14.66,0,0,0-2,1.54,7.22,7.22,0,0,0-1.65,2.07,3,3,0,0,0-.34,1.26,2.09,2.09,0,0,0,.37,1.23,3.09,3.09,0,0,0,1,.94,6.93,6.93,0,0,0,1.38.63,14.68,14.68,0,0,0,3.18.6,25.9,25.9,0,0,0,3.42,0,37.77,37.77,0,0,0,7.13-1.11,38.29,38.29,0,0,0,6.81-2.4,26.74,26.74,0,0,0,3-1.65,13.71,13.71,0,0,0,2.51-2,6.14,6.14,0,0,0,.92-1.21,3.17,3.17,0,0,0,.46-1.31,2.14,2.14,0,0,0-.25-1.25,3.17,3.17,0,0,0-.9-1,7.41,7.41,0,0,0-2.44-1,16,16,0,0,0-2.49-.41,28,28,0,0,0-4.38,0c-1.29.1-2.4.24-3.31.37-1.8.28-2.79.51-2.81.44a2.43,2.43,0,0,1,.7-.25c.46-.14,1.15-.32,2.06-.51s2-.37,3.32-.51a26.85,26.85,0,0,1,4.47-.1,15.29,15.29,0,0,1,2.59.38,7.74,7.74,0,0,1,2.69,1.1,3.63,3.63,0,0,1,1.11,1.16,2.77,2.77,0,0,1,.37,1.67,3.83,3.83,0,0,1-.53,1.63,7.43,7.43,0,0,1-1,1.35,14.66,14.66,0,0,1-2.64,2.18,26.27,26.27,0,0,1-3.08,1.73,38.44,38.44,0,0,1-7,2.47,37.44,37.44,0,0,1-7.29,1.11,24.35,24.35,0,0,1-3.53-.06,14.43,14.43,0,0,1-3.35-.67,7.17,7.17,0,0,1-1.54-.71,4.1,4.1,0,0,1-1.24-1.18,2.84,2.84,0,0,1-.46-1.64,3.66,3.66,0,0,1,.43-1.56,8,8,0,0,1,1.84-2.24,16.35,16.35,0,0,1,2.11-1.56,26.82,26.82,0,0,1,4-2,33.09,33.09,0,0,1,3.17-1.12c.88-.26,1.58-.43,2.05-.53A2.42,2.42,0,0,1,363.05,310Z" style="fill:#455a64"></path><path d="M368.09,315.77a2.68,2.68,0,1,1-3.25-1.95A2.69,2.69,0,0,1,368.09,315.77Z" style="fill:#455a64"></path><path d="M422.72,269.86l-.3-.14-.87-.44-3.35-1.74-12.31-6.47H406l-37.92,14.49-.34.13.1-.35,1.16-4.19c2.65-9.56,5.16-18.61,7.36-26.57l0-.06,0,0,21-15.74,6-4.44,1.59-1.17.41-.29q.13-.11.15-.09l-.13.11-.4.32-1.56,1.2-5.92,4.51-20.94,15.85.06-.09c-2.2,8-4.69,17-7.33,26.59-.4,1.43-.79,2.86-1.16,4.19l-.24-.22,38-14.39,0,0,.06,0,12.25,6.57,3.31,1.79.86.48Z" style="fill:#B0BEC5"></path><polygon points="372.95 275.1 370.68 275.77 369.95 278.02 368.61 276.07 366.24 276.07 367.68 274.19 366.95 271.94 369.18 272.73 371.09 271.34 371.03 273.71 372.95 275.1" style="fill:#B0BEC5"></polygon><polygon points="379.5 243.85 378.07 244.37 377.68 245.85 376.74 244.65 375.21 244.74 376.07 243.47 375.51 242.05 376.98 242.47 378.16 241.5 378.21 243.03 379.5 243.85" style="fill:#B0BEC5"></polygon><polygon points="408.21 221.82 407.17 223.39 407.86 225.13 406.05 224.62 404.61 225.82 404.53 223.94 402.95 222.94 404.71 222.29 405.17 220.47 406.34 221.94 408.21 221.82" style="fill:#B0BEC5"></polygon><polygon points="425.02 267.88 423.97 269.45 424.67 271.19 422.86 270.68 421.41 271.88 421.34 270 419.75 269 421.51 268.35 421.98 266.53 423.14 268 425.02 267.88" style="fill:#B0BEC5"></polygon><polygon points="407.38 260.17 406.71 261.17 407.16 262.28 406 261.95 405.08 262.72 405.04 261.52 404.02 260.88 405.15 260.46 405.44 259.3 406.19 260.25 407.38 260.17" style="fill:#B0BEC5"></polygon><circle cx="290.54" cy="98.15" r="19.2" transform="translate(146.85 369.07) rotate(-80.73)" style="fill:#B0BEC5"></circle><g style="opacity:0.30000000000000004"><path d="M288,104.14a3.13,3.13,0,1,1-3.13-3.13A3.13,3.13,0,0,1,288,104.14Z" style="fill:#fff"></path></g><g style="opacity:0.30000000000000004"><path d="M283.6,95.1a1.82,1.82,0,1,1-1.82-1.82A1.82,1.82,0,0,1,283.6,95.1Z" style="fill:#fff"></path></g><path d="M271.91,102.82c.09.33-16.43,16.18-12.17,19.56s22.17-5.29,37.44-17.62,29.21-27.31,25.39-31.27-22.89,7.77-22.89,7.77L302,82.71s11.53-7.4,15.18-4.53-6.75,14.1-21.43,24.82-28.87,18.24-31.07,15.3,8.19-12.73,8.19-12.73Z" style="fill:#B0BEC5"></path><g style="opacity:0.30000000000000004"><path d="M271.91,102.82c.09.33-16.43,16.18-12.17,19.56s22.17-5.29,37.44-17.62,29.21-27.31,25.39-31.27-22.89,7.77-22.89,7.77L302,82.71s11.53-7.4,15.18-4.53-6.75,14.1-21.43,24.82-28.87,18.24-31.07,15.3,8.19-12.73,8.19-12.73Z"></path></g><g style="opacity:0.30000000000000004"><path d="M280,84.62c.15.19-1.15,1.29-2.62,3.51a17.68,17.68,0,0,0-.39,19.42c1.39,2.27,2.64,3.43,2.48,3.61s-1.64-.76-3.35-3a16.68,16.68,0,0,1-2.33-4.37,16.61,16.61,0,0,1,.24-12,16.59,16.59,0,0,1,2.5-4.27C278.29,85.32,279.87,84.49,280,84.62Z" style="fill:#fff"></path></g><path d="M319.58,115.07a11.15,11.15,0,1,1,10.88,11.41A11.15,11.15,0,0,1,319.58,115.07Z" style="fill:#B0BEC5"></path><g style="opacity:0.4"><path d="M334.36,111.07a1.82,1.82,0,1,1,1.77,1.86A1.81,1.81,0,0,1,334.36,111.07Z"></path></g><g style="opacity:0.4"><path d="M338,115.31a1.06,1.06,0,1,1,1,1.09A1.07,1.07,0,0,1,338,115.31Z"></path></g><g style="opacity:0.4"><path d="M336.57,118.56a.4.4,0,0,1,.39.4.39.39,0,0,1-.4.38.38.38,0,0,1-.38-.4A.39.39,0,0,1,336.57,118.56Z"></path></g><path d="M365.62,198.25c-.1,0-.17-14.12-.17-31.53s.07-31.53.17-31.53.17,14.11.17,31.53S365.71,198.25,365.62,198.25Z" style="fill:#263238"></path><path d="M367.5,135.73a28.27,28.27,0,0,1-2.14-3.66l.3,0,0,.08a30.5,30.5,0,0,1-1.83,3.93,26.34,26.34,0,0,1,1.52-4.06l0-.08.14-.32.16.3A26.41,26.41,0,0,1,367.5,135.73Z" style="fill:#263238"></path><path d="M365.27,127.74c-.06.07-.58-.27-1-.9s-.52-1.24-.43-1.26.33.5.71,1.08S365.33,127.67,365.27,127.74Z" style="fill:#263238"></path><path d="M364.28,129.56a11.75,11.75,0,0,1,.8-2.25,11.25,11.25,0,0,1,.92-2.2,6.66,6.66,0,0,1-.61,2.32A6.57,6.57,0,0,1,364.28,129.56Z" style="fill:#263238"></path><path d="M361.1,143.49a18.78,18.78,0,0,0,.58-1.94,19.5,19.5,0,0,0,0-2,2.88,2.88,0,0,1,.29,2.08A2.85,2.85,0,0,1,361.1,143.49Z" style="fill:#263238"></path><path d="M361.72,140.86s-.08.27-.48.37a.94.94,0,0,1-.69-.12,1,1,0,0,1-.08-1.56,1,1,0,0,1,.68-.18c.41,0,.55.3.51.32s-.21-.1-.52-.08a.67.67,0,0,0-.68.72.69.69,0,0,0,.75.66C361.52,141,361.68,140.82,361.72,140.86Z" style="fill:#263238"></path><path d="M414.71,193.77c0,.09-12.08.17-27,.17s-27-.08-27-.17,12.07-.17,27-.17S414.71,193.68,414.71,193.77Z" style="fill:#263238"></path><path d="M415.26,193.7A8.15,8.15,0,0,1,413,193a8.36,8.36,0,0,1-2.1-1,7.88,7.88,0,0,1,2.22.71A8.11,8.11,0,0,1,415.26,193.7Z" style="fill:#263238"></path><path d="M415.85,193.9a10.91,10.91,0,0,1-3.68,1.29,6.21,6.21,0,0,1,1.79-.8A5.64,5.64,0,0,1,415.85,193.9Z" style="fill:#263238"></path><path d="M363.08,195.48a1.66,1.66,0,0,1,.7,1.12,2.38,2.38,0,0,1-.11,1.47,1.7,1.7,0,0,1-.54.73.92.92,0,0,1-1,0,1.93,1.93,0,0,1-.78-1.64,1.71,1.71,0,0,1,.6-1.35,1.29,1.29,0,0,1,.95-.31c.24,0,.35.11.34.12s-.13,0-.34,0a1.31,1.31,0,0,0-.79.36,1.49,1.49,0,0,0-.45,1.16,1.68,1.68,0,0,0,.64,1.36.61.61,0,0,0,.66,0,1.43,1.43,0,0,0,.45-.58,2.35,2.35,0,0,0,.16-1.3A4.08,4.08,0,0,0,363.08,195.48Z" style="fill:#263238"></path><path d="M407,196.19s.19-.11.45.11a.67.67,0,0,1,.23.54,1.15,1.15,0,0,1-.32.69c-.38.42-1.08.58-1.4,1.09a.9.9,0,0,0,0,.87.85.85,0,0,0,.82.41.81.81,0,0,0,.71-.58.89.89,0,0,0-.17-.86,2.45,2.45,0,0,0-.72-.57,1.07,1.07,0,0,1-.64-.66.89.89,0,0,1,.17-.75,1.12,1.12,0,0,1,.45-.34c.29-.1.46-.08.47-.06s-.16,0-.41.18a1,1,0,0,0-.36.33.68.68,0,0,0-.09.58c.1.43.9.49,1.37,1.1a1.22,1.22,0,0,1,.24,1.16,1.15,1.15,0,0,1-1,.8,1.18,1.18,0,0,1-1.14-.57,1.22,1.22,0,0,1,0-1.2,2,2,0,0,1,.8-.66,3.58,3.58,0,0,0,.69-.44.93.93,0,0,0,.3-.54.58.58,0,0,0-.13-.43C407.2,196.19,407,196.22,407,196.19Z" style="fill:#263238"></path><path d="M406.86,194.93a6.61,6.61,0,0,1,0-3,6.61,6.61,0,0,1,0,3Z" style="fill:#263238"></path><path d="M421.29,193.83a2.43,2.43,0,0,1-.92.14l-1,.06a.36.36,0,0,1-.23,0,.28.28,0,0,1-.12-.3.62.62,0,0,1,.21-.32l.44-.46a1.46,1.46,0,0,0,.55-.95.61.61,0,0,0-.42-.62,1,1,0,0,0-.59.11c-.15.06-.23.1-.25.08s.05-.09.18-.19a1,1,0,0,1,.7-.24.86.86,0,0,1,.69.87,1.72,1.72,0,0,1-.6,1.17l-.46.45c-.08.07-.14.14-.14.17h0v0h.06l1,0A2.7,2.7,0,0,1,421.29,193.83Z" style="fill:#263238"></path><path d="M372.8,193.77s0-.34,0-.93,0-1.46-.05-2.47c0-2.1-.06-5-.07-8.32l.16.17h-3.13l.17-.17h0v3.47c0,1.11,0,2.17,0,3.17,0,2,0,3.7-.05,5.07l-.1-.1,2.28.05c.54,0,.84,0,.85.05a6.16,6.16,0,0,1-.79,0l-2.34.05h-.1v-.1c0-1.37,0-3.09,0-5.07,0-1,0-2.06,0-3.17v-3.47h0l.17-.17H373v.16c0,3.39,0,6.34-.08,8.43,0,1,0,1.82,0,2.44A5.42,5.42,0,0,1,372.8,193.77Z" style="fill:#263238"></path><path d="M402.65,193.77a1.89,1.89,0,0,1,0-.36c0-.26,0-.58,0-1,0-.9,0-2.12-.05-3.63,0-3.06-.06-7.3-.07-12.11l.17.16h-3.14l.17-.16h0v2.64c0,.87,0,1.72,0,2.55,0,1.67,0,3.24,0,4.71,0,2.9-.05,5.36-.06,7.16l-.09-.09,2.29,0,.62,0,.23,0a5.65,5.65,0,0,1-.79,0l-2.35.05h-.09v-.09c0-1.8,0-4.26-.06-7.16,0-1.47,0-3,0-4.71,0-.83,0-1.68,0-2.55v-2.64h0l.17-.17h3.3v.17c0,4.88,0,9.18-.07,12.23,0,1.49,0,2.7-.05,3.59,0,.38,0,.7,0,1S402.65,193.78,402.65,193.77Z" style="fill:#263238"></path><path d="M380.35,193.77a2.79,2.79,0,0,1,0-.44c0-.32,0-.73,0-1.24,0-1.09,0-2.62-.05-4.52,0-3.83,0-9.12-.07-15.09l.17.17h-3.14c.34-.34.09-.09.17-.16h0v3.38c0,1.11,0,2.19,0,3.25,0,2.11,0,4.1,0,5.93,0,3.64-.05,6.64-.07,8.72l-.08-.08,2.31,0,.61,0,.22,0-.19,0h-.6l-2.35,0h-.08v-.08c0-2.08,0-5.08-.06-8.72,0-1.83,0-3.82,0-5.93,0-1.06,0-2.14,0-3.25v-3.38h0c.08-.08-.17.16.17-.18h3.3v.16c0,6-.05,11.35-.07,15.21,0,1.88,0,3.4-.05,4.48,0,.5,0,.9,0,1.2S380.35,193.78,380.35,193.77Z" style="fill:#263238"></path><path d="M387.73,193.7a1.15,1.15,0,0,1,0-.17V193c0-.46,0-1.1,0-1.91,0-1.67,0-4.06-.05-7,0-5.94-.05-14.15-.08-23.37l.17.17H384.6l.16-.16h0v10.57c0,3.34,0,6.48,0,9.34,0,5.68-.06,10.23-.08,13l-.06-.06,2.31,0h.82s-.06,0-.19,0H387l-2.35,0h-.07v-.07c0-2.82,0-7.37-.07-13,0-2.86,0-6,0-9.34,0-1.68,0-3.4,0-5.17v-5.4h0c.07-.08-.17.16.17-.18h3.3v.17c0,9.26,0,17.52-.07,23.49,0,2.94,0,5.32-.05,7,0,.8,0,1.43,0,1.88l0,.48C387.74,193.66,387.74,193.71,387.73,193.7Z" style="fill:#263238"></path><path d="M395.3,193.7s0-.1,0-.29,0-.49,0-.85c0-.75,0-1.84,0-3.23,0-2.81,0-6.87-.05-11.88,0-10,0-23.93-.07-39.43l.17.17h-3.14c.33-.33.1-.08.17-.15v9.57c0,3.12,0,6.16,0,9.09,0,5.87,0,11.31,0,16.18,0,9.7-.07,17.07-.09,20.82l0,0,2.35,0h.79s-.06,0-.19,0l-.57,0-2.38,0h-.05v-.06c0-3.75-.05-11.12-.08-20.82,0-4.87,0-10.31,0-16.18,0-2.93,0-6,0-9.09V138c.08-.08-.17.15.17-.19h3.3V138c0,15.55,0,29.48-.07,39.55,0,5,0,9-.05,11.84,0,1.38,0,2.45,0,3.2,0,.35,0,.62,0,.82S395.3,193.71,395.3,193.7Z" style="fill:#263238"></path><path d="M59.6,197l2.67,46.83,78.35-4.47Zm13.09,18.17,33.7,18L73.82,235Z" style="fill:#B0BEC5"></path><path d="M67.38,201.09A9.61,9.61,0,0,1,66.14,204a9.45,9.45,0,0,1-1.73,2.67,9.51,9.51,0,0,1,1.24-2.94A9.6,9.6,0,0,1,67.38,201.09Z" style="fill:#263238"></path><path d="M79.4,207.3a9.4,9.4,0,0,1-1.24,2.87,8.9,8.9,0,0,1-1.71,2.59,9.12,9.12,0,0,1,1.23-2.87A8.64,8.64,0,0,1,79.4,207.3Z" style="fill:#263238"></path><path d="M91.41,213.51a9.16,9.16,0,0,1-1.52,2.71,8.54,8.54,0,0,1-2,2.4,9.14,9.14,0,0,1,1.52-2.72A8.78,8.78,0,0,1,91.41,213.51Z" style="fill:#263238"></path><path d="M103.23,220a8.62,8.62,0,0,1-1.52,2.72,9.22,9.22,0,0,1-2,2.4,8.62,8.62,0,0,1,1.52-2.72A9.22,9.22,0,0,1,103.23,220Z" style="fill:#263238"></path><path d="M115.57,226.33a9.47,9.47,0,0,1-1.38,2.89,9.57,9.57,0,0,1-1.84,2.6,18.2,18.2,0,0,1,3.22-5.49Z" style="fill:#263238"></path><path d="M128.38,233a8.27,8.27,0,0,1-1.22,2.74,8.52,8.52,0,0,1-1.7,2.47,8.43,8.43,0,0,1,1.23-2.75A8.09,8.09,0,0,1,128.38,233Z" style="fill:#263238"></path><path d="M71.13,203.05c.13.08-.09.76-.5,1.54s-.85,1.33-1,1.26.09-.76.5-1.53S71,203,71.13,203.05Z" style="fill:#263238"></path><path d="M75.06,205c.14.07-.09.76-.5,1.53s-.84,1.34-1,1.27.1-.76.5-1.54S74.93,204.94,75.06,205Z" style="fill:#263238"></path><path d="M83.83,209.65c.13.08-.09.76-.5,1.54s-.85,1.34-1,1.26.09-.76.5-1.53S83.7,209.58,83.83,209.65Z" style="fill:#263238"></path><path d="M87.77,211.62c.13.07-.09.76-.5,1.53s-.85,1.34-1,1.27.09-.76.5-1.54S87.63,211.55,87.77,211.62Z" style="fill:#263238"></path><path d="M95.7,216.06c.14.07-.09.76-.5,1.53s-.84,1.34-1,1.27.09-.76.5-1.54S95.57,216,95.7,216.06Z" style="fill:#263238"></path><path d="M99.46,218c.14.07-.09.76-.5,1.53s-.84,1.34-1,1.27.09-.77.5-1.54S99.33,218,99.46,218Z" style="fill:#263238"></path><path d="M107.57,222.24c.13.08-.09.76-.5,1.54s-.84,1.33-1,1.26.09-.76.5-1.53S107.44,222.17,107.57,222.24Z" style="fill:#263238"></path><path d="M111.93,224.55c.13.08-.09.76-.5,1.54s-.85,1.34-1,1.26.09-.76.5-1.53S111.8,224.48,111.93,224.55Z" style="fill:#263238"></path><path d="M119.77,228.68c.13.07-.09.76-.5,1.53s-.85,1.34-1,1.27.09-.76.5-1.54S119.63,228.61,119.77,228.68Z" style="fill:#263238"></path><path d="M124.29,231c.13.08-.09.77-.5,1.54s-.85,1.34-1,1.26.09-.76.5-1.53S124.16,230.93,124.29,231Z" style="fill:#263238"></path><path d="M193.6,131.84s0-.06,0-.17,0-.29,0-.5c0-.44,0-1.08,0-1.91,0-1.68,0-4.12,0-7.22,0-6.2-.05-15-.08-25.64l.15.14-35.44,0h0l.16-.17c0,13,0,25.14,0,35.44l-.14-.15,25.64.08,7.22,0h.06l-7.18,0-25.74.07H158v-.15c0-10.3,0-22.46,0-35.44v-.17h.17l35.44,0h.14v.15c0,10.64-.05,19.51-.07,25.74,0,3.08,0,5.51,0,7.18,0,.82,0,1.44,0,1.88v.64Z" style="fill:#B0BEC5"></path><path d="M193.6,131.84a2.4,2.4,0,0,1,.27-.19l.81-.52,3.14-2L209.36,122l-.06.11c0-9.25,0-21.5,0-34.91l.16.17h-.09l-34.94,0,.06,0L162.56,94l-3.26,1.82-.85.46-.29.15a3.22,3.22,0,0,1,.27-.18l.84-.5,3.22-1.87,11.84-6.8,0,0h0l34.94,0h.26v.17c0,13.41,0,25.66,0,34.91v.07l-.06,0-11.6,7.09-3.17,1.92-.83.49Z" style="fill:#B0BEC5"></path><path d="M209.42,87.16c.05.08-3.45,2.21-7.82,4.76s-8,4.56-8,4.48,3.45-2.21,7.83-4.77S209.38,87.08,209.42,87.16Z" style="fill:#B0BEC5"></path><path d="M159.84,130.38c0,.08-.3.37-.76.63s-.88.42-.92.34.29-.36.75-.63S159.79,130.3,159.84,130.38Z" style="fill:#B0BEC5"></path><path d="M163.2,128.45c.05.08-.29.37-.76.63s-.88.42-.92.34.29-.36.76-.63S163.15,128.37,163.2,128.45Z" style="fill:#B0BEC5"></path><path d="M166.56,126.52c.05.08-.29.37-.75.63s-.88.42-.93.34.29-.36.76-.63S166.52,126.44,166.56,126.52Z" style="fill:#B0BEC5"></path><path d="M169.93,124.59c0,.08-.3.36-.76.63s-.88.42-.93.34.3-.36.76-.63S169.88,124.51,169.93,124.59Z" style="fill:#B0BEC5"></path><path d="M173.29,122.66c0,.08-.29.36-.76.63s-.88.42-.92.34.29-.36.75-.63S173.24,122.58,173.29,122.66Z" style="fill:#B0BEC5"></path><path d="M174.14,119.27c.09,0,.16.43.16,1s-.08,1-.18,1-.16-.43-.16-1S174.05,119.26,174.14,119.27Z" style="fill:#B0BEC5"></path><path d="M174.17,115.39c.09,0,.17.43.16,1s-.08,1-.17,1-.17-.44-.17-1S174.08,115.39,174.17,115.39Z" style="fill:#B0BEC5"></path><path d="M174.2,111.51c.09,0,.17.44.16,1s-.08,1-.17,1-.17-.44-.17-1S174.11,111.51,174.2,111.51Z" style="fill:#B0BEC5"></path><path d="M174.23,107.63c.09,0,.17.44.16,1s-.08,1-.17,1-.17-.43-.16-1S174.14,107.63,174.23,107.63Z" style="fill:#B0BEC5"></path><path d="M174.26,103.76c.09,0,.17.43.16,1s-.08,1-.17,1-.17-.43-.16-1S174.17,103.76,174.26,103.76Z" style="fill:#B0BEC5"></path><path d="M174.29,99.88c.1,0,.17.43.16,1s-.08,1-.17,1-.17-.44-.16-1S174.2,99.88,174.29,99.88Z" style="fill:#B0BEC5"></path><path d="M174.32,96c.1,0,.17.44.16,1s-.08,1-.17,1-.17-.44-.16-1S174.23,96,174.32,96Z" style="fill:#B0BEC5"></path><path d="M174.35,92.12c.1,0,.17.44.16,1s-.08,1-.17,1-.17-.43-.16-1S174.26,92.12,174.35,92.12Z" style="fill:#B0BEC5"></path><path d="M174.38,88.25c.1,0,.17.43.16,1s-.08,1-.17,1-.17-.43-.16-1S174.29,88.25,174.38,88.25Z" style="fill:#B0BEC5"></path><path d="M207.49,122.08c0-.08.43-.15,1-.15s1,.07,1,.15-.43.16-1,.16S207.49,122.17,207.49,122.08Z" style="fill:#B0BEC5"></path><path d="M203.61,122.08c0-.08.43-.15,1-.15s1,.07,1,.15-.44.16-1,.16S203.61,122.17,203.61,122.08Z" style="fill:#B0BEC5"></path><path d="M199.73,122.08c0-.08.43-.15,1-.15s1,.07,1,.15-.43.16-1,.16S199.73,122.17,199.73,122.08Z" style="fill:#B0BEC5"></path><path d="M195.85,122.08c0-.08.44-.15,1-.15s1,.07,1,.15-.43.16-1,.16S195.85,122.17,195.85,122.08Z" style="fill:#B0BEC5"></path><path d="M192,122.08c0-.08.43-.15,1-.15s1,.07,1,.15-.43.16-1,.16S192,122.17,192,122.08Z" style="fill:#B0BEC5"></path><path d="M188.1,122.08c0-.08.43-.15,1-.15s1,.07,1,.15-.44.16-1,.16S188.1,122.17,188.1,122.08Z" style="fill:#B0BEC5"></path><path d="M184.22,122.08c0-.08.43-.15,1-.15s1,.07,1,.15-.43.16-1,.16S184.22,122.17,184.22,122.08Z" style="fill:#B0BEC5"></path><path d="M180.34,122.08c0-.08.44-.15,1-.15s1,.07,1,.15-.43.16-1,.16S180.34,122.17,180.34,122.08Z" style="fill:#B0BEC5"></path><path d="M176.47,122.08c0-.08.43-.15,1-.15s1,.07,1,.15-.43.16-1,.16S176.47,122.17,176.47,122.08Z" style="fill:#B0BEC5"></path><path d="M174.12,122.08c0-.08.09-.15.2-.15s.21.07.21.15-.09.16-.21.16A.18.18,0,0,1,174.12,122.08Z" style="fill:#B0BEC5"></path><path d="M213.71,110.27a4.6,4.6,0,0,0,.89,0,2.77,2.77,0,0,0,1.84-1.39,3.72,3.72,0,0,0-.1-3.37,1,1,0,0,0-.7-.56,1.24,1.24,0,0,0-.9.24,4.28,4.28,0,0,0-1.13,1.88,8.71,8.71,0,0,0-.5,2.41h-.33c0-2.57-.05-4.81-.05-6.41,0-.75,0-1.38,0-1.88a2.83,2.83,0,0,1,0-.68,3.42,3.42,0,0,1,.07.68c0,.5,0,1.13.08,1.88.06,1.6.12,3.84.17,6.41h-.33a9,9,0,0,1,.52-2.5,9.88,9.88,0,0,1,.48-1.1,2.73,2.73,0,0,1,.76-.93,1.55,1.55,0,0,1,1.16-.3,1.36,1.36,0,0,1,.9.72,3.92,3.92,0,0,1,0,3.65,2.79,2.79,0,0,1-2,1.39,2.1,2.1,0,0,1-.68,0A.62.62,0,0,1,213.71,110.27Z" style="fill:#B0BEC5"></path><path d="M115.42,276.23s.14,0,.41.12.67.21,1.18.42a23,23,0,0,1,4.26,2.22,23.63,23.63,0,0,1,5.6,5.15,20.83,20.83,0,0,1,4.18,9.12,20.31,20.31,0,0,1-1.55,12,18.87,18.87,0,0,1-3.9,5.6,18.13,18.13,0,0,1-2.79,2.26c-.53.3-1,.62-1.6.9s-1.1.55-1.69.76c-4.66,1.85-10,1.93-15.36,1.42-2.68-.26-5.38-.65-8.13-1.08a49.24,49.24,0,0,1-8.23-1.91,20.85,20.85,0,0,1-7.37-4.14,16.67,16.67,0,0,1-2.7-3.18A17.19,17.19,0,0,1,76,302.16a19.33,19.33,0,0,1-.79-7.89A21.11,21.11,0,0,1,77.39,287a24.29,24.29,0,0,1,9.92-9.76,32.83,32.83,0,0,1,11.62-3.7,45.47,45.47,0,0,1,10.08-.07,67.23,67.23,0,0,1,7.51,1.23c2,.46,3.6.88,4.66,1.17l1.2.35.41.14-.42-.1-1.21-.31c-1.06-.27-2.63-.67-4.67-1.1a67.19,67.19,0,0,0-7.51-1.15,44.57,44.57,0,0,0-10,.12,32.79,32.79,0,0,0-11.49,3.71,24,24,0,0,0-9.75,9.64,20.63,20.63,0,0,0-2.11,7.16,19.06,19.06,0,0,0,.78,7.73,16.42,16.42,0,0,0,1.68,3.64,16.08,16.08,0,0,0,2.62,3.1,20.68,20.68,0,0,0,7.23,4.06,49.14,49.14,0,0,0,8.18,1.89c2.73.43,5.44.82,8.1,1.08,5.3.51,10.61.44,15.19-1.38a17.77,17.77,0,0,0,9.81-9.3,20.14,20.14,0,0,0,1.58-11.82,20.75,20.75,0,0,0-4.09-9,23.85,23.85,0,0,0-5.5-5.15,25,25,0,0,0-4.21-2.28c-.51-.21-.9-.34-1.17-.45Z" style="fill:#263238"></path><path d="M88.72,302.07a3.21,3.21,0,0,1-.81.1l-2.23.11-.74,0a3.13,3.13,0,0,1-.85,0,.73.73,0,0,1-.42-.34,1.23,1.23,0,0,1-.13-.48l-.06-.91c-.07-1.26-.15-2.62-.23-4s-.17-2.79-.18-4.06a3.61,3.61,0,0,1,.42-1.79,2.52,2.52,0,0,1,1.22-1,5.09,5.09,0,0,1,2.25-.25,2.62,2.62,0,0,1,.81.15,4.72,4.72,0,0,1-.82,0,5.28,5.28,0,0,0-2.13.35,2.16,2.16,0,0,0-1,.95,3.36,3.36,0,0,0-.35,1.62c0,1.22.15,2.61.21,4s.14,2.79.21,4c.06.59-.07,1.33.34,1.43a2.6,2.6,0,0,0,.75,0h3A2.93,2.93,0,0,1,88.72,302.07Z" style="fill:#263238"></path><path d="M87.6,295.52a5.83,5.83,0,0,1-2.08.24,5.72,5.72,0,0,1-2.09-.16,5.58,5.58,0,0,1,2.08-.24A5.68,5.68,0,0,1,87.6,295.52Z" style="fill:#263238"></path><path d="M98,293.66a17.77,17.77,0,0,1-3.17.16,20.07,20.07,0,0,1-3.16,0,9.38,9.38,0,0,1,3.15-.43A9.82,9.82,0,0,1,98,293.66Z" style="fill:#263238"></path><path d="M98.62,298.44a10.19,10.19,0,0,1-3.14.22,9.94,9.94,0,0,1-3.11-.37,16.3,16.3,0,0,1,3.12,0A17.33,17.33,0,0,1,98.62,298.44Z" style="fill:#263238"></path><path d="M115.43,301.31s0-.43,0-1.22a12.13,12.13,0,0,0-.6-3.28,3.34,3.34,0,0,0-1.16-1.89,1,1,0,0,0-1.09.07,2.74,2.74,0,0,0-.83,1,14,14,0,0,0-1,6.21l-.39,0a26.33,26.33,0,0,0-.06-4.6,18.31,18.31,0,0,0-.26-1.85,2.4,2.4,0,0,0-.84-1.44,1.25,1.25,0,0,0-1.46,0,2.22,2.22,0,0,0-.92,1.26,8.54,8.54,0,0,0-.28,1.59c-.06.53-.11,1.05-.13,1.56a24.61,24.61,0,0,0,0,2.85l-.31,0c-.08-2.25-.15-4.09-.2-5.44,0-.6,0-1.09,0-1.48a2.09,2.09,0,0,1,0-.52,2.75,2.75,0,0,1,.07.52l.12,1.48c.08,1.34.2,3.18.34,5.42h-.31a27.15,27.15,0,0,1,0-2.88c0-.51.06-1,.12-1.58a8.39,8.39,0,0,1,.29-1.66,2.61,2.61,0,0,1,1.06-1.48,1.82,1.82,0,0,1,1-.28,1.7,1.7,0,0,1,1,.33,2.79,2.79,0,0,1,1,1.67,17.77,17.77,0,0,1,.28,1.9,27.11,27.11,0,0,1,0,4.67l-.39,0a14,14,0,0,1,1.1-6.35,2.93,2.93,0,0,1,1-1.14,1.31,1.31,0,0,1,1.42-.07,3.55,3.55,0,0,1,1.25,2.07,11.62,11.62,0,0,1,.5,3.36c0,.4,0,.71-.05.91A1.24,1.24,0,0,1,115.43,301.31Z" style="fill:#263238"></path><path d="M124.19,300.68s-.14.17-.48.34a3.79,3.79,0,0,1-1.55.38,4.06,4.06,0,0,1-2.3-.63,4,4,0,0,1-1.28-5.29,4.1,4.1,0,0,1,1.76-1.61,3.74,3.74,0,0,1,1.55-.37,1.39,1.39,0,0,1,.58.08,5.76,5.76,0,0,0-2,.54,4,4,0,0,0-1.56,1.54,3.77,3.77,0,0,0,1.16,4.81,3.94,3.94,0,0,0,2.1.65A5.49,5.49,0,0,0,124.19,300.68Z" style="fill:#263238"></path><path d="M126.55,289.35a20.45,20.45,0,0,0-4.45.77l-.67.22.5-.51a13.93,13.93,0,0,0,2.48-3,4.5,4.5,0,0,0,.52-3.07c-.11-.47-.39-.84-.77-.85a2.44,2.44,0,0,0-1.13.3,4.41,4.41,0,0,0-1.38,1.11c-.27.33-.38.55-.41.53a1.33,1.33,0,0,1,.29-.62,3.79,3.79,0,0,1,1.37-1.26,2.58,2.58,0,0,1,1.28-.39,1,1,0,0,1,.73.35,1.75,1.75,0,0,1,.37.73,4.75,4.75,0,0,1-.52,3.36,12.92,12.92,0,0,1-2.59,3.09l-.17-.3a12.36,12.36,0,0,1,3.28-.52A3.61,3.61,0,0,1,126.55,289.35Z" style="fill:#263238"></path></g><g id="freepik--Desk--inject-10"><path d="M475.16,454.64c0,.14-100.82.26-225.15.26s-225.17-.12-225.17-.26,100.8-.26,225.17-.26S475.16,454.49,475.16,454.64Z" style="fill:#263238"></path></g><g id="freepik--Device--inject-10"><path d="M37.72,348.11l21.7,106.53H247.77a3.76,3.76,0,0,0,3.76-3.76h0a3.76,3.76,0,0,0-3.76-3.77H209.85L189.73,348a4.1,4.1,0,0,0-4-3.29L41.8,343.17A4.12,4.12,0,0,0,37.72,348.11Z" style="fill:#e0e0e0"></path><path d="M37.72,348.11l-.06-.32a4.11,4.11,0,0,1,0-1,4.16,4.16,0,0,1,2-3.11,4,4,0,0,1,1.24-.5,7.14,7.14,0,0,1,1.48-.09l3.39,0,8.48.07,54.43.51,37.94.39,21.26.21,11.14.12,5.7.06c.49,0,.94,0,1.46,0a4.39,4.39,0,0,1,1.46.43,4.29,4.29,0,0,1,2.06,2.16,6.69,6.69,0,0,1,.4,1.45l.29,1.43c.19,1,.39,1.92.59,2.88q.58,2.89,1.18,5.82,1.19,5.85,2.41,11.85,2.44,12,5,24.53c3.39,16.7,6.93,34.07,10.56,52l-.25-.2h37.29a7.48,7.48,0,0,1,1.47.09,4,4,0,0,1,2.46,1.65,4,4,0,0,1,.67,2.89,4,4,0,0,1-2.05,2.93,4.11,4.11,0,0,1-1.78.48H147.85l-88.43,0h-.16l0-.16c-6.64-32.75-12-59.38-15.77-77.84-1.86-9.22-3.3-16.4-4.28-21.28q-.72-3.66-1.1-5.55c-.25-1.26-.36-1.9-.36-1.9s.15.64.41,1.88.66,3.12,1.16,5.54c1,4.88,2.49,12.05,4.39,21.27,3.78,18.45,9.23,45.07,15.94,77.8l-.2-.16,88.43-.05H247.9a3.64,3.64,0,0,0,1.54-.41,3.54,3.54,0,0,0,1.79-2.55,3.59,3.59,0,0,0-.58-2.53,3.55,3.55,0,0,0-2.15-1.43,7.48,7.48,0,0,0-1.36-.08h-37.5l0-.2c-3.63-17.91-7.16-35.28-10.54-52q-2.55-12.54-5-24.54l-2.4-11.85c-.39-1.95-.79-3.89-1.18-5.81-.19-1-.39-1.93-.58-2.88l-.29-1.44a7.13,7.13,0,0,0-.36-1.36,3.9,3.9,0,0,0-3.16-2.32c-.44,0-.94,0-1.41,0l-5.7-.07-11.15-.12-21.25-.25-37.95-.45-54.43-.67-8.47-.11-3.39-.05a6.32,6.32,0,0,0-1.46.08,4,4,0,0,0-1.22.47,4.11,4.11,0,0,0-2,3A6,6,0,0,0,37.72,348.11Z" style="fill:#263238"></path><circle cx="118.29" cy="396.86" r="6.22" style="fill:#fff"></circle><path d="M37.9,349s.22,0,.65,0h9.22l26.93.13,88.85.62,12.85.11,3.16,0a8.1,8.1,0,0,1,1.61.1,4.5,4.5,0,0,1,3.44,3.21c.24,1,.41,2,.62,3l4.59,23.14c2.91,14.75,5.54,28,7.74,39.19s4,20.17,5.18,26.42c.6,3.11,1.06,5.53,1.38,7.19.15.81.27,1.44.35,1.88s.1.64.1.64-.06-.21-.15-.63-.23-1.06-.4-1.87L202.54,445c-1.26-6.25-3.08-15.26-5.34-26.39s-4.9-24.43-7.85-39.17c-1.47-7.37-3-15.11-4.62-23.13-.21-1-.39-2-.61-3a4,4,0,0,0-1.7-2.3,3.87,3.87,0,0,0-1.35-.54,7.45,7.45,0,0,0-1.52-.09l-3.15,0-12.85-.1-88.85-.78-26.93-.3L40.45,349l-1.91,0Z" style="fill:#263238"></path></g></svg>