<?xml version="1.0" encoding="UTF-8"?>
<svg xmlns="http://www.w3.org/2000/svg" id="Layer_1" data-name="Layer 1" viewBox="0 0 24 24" width="512" height="512" fill="#dadada"><path d="m6.893,15.606l-3.393,8.394H1.286l3.556-8.797c.658.165,1.349.292,2.051.403Zm10.107,0l3.393,8.394h2.214s-3.556-8.797-3.556-8.797c-.658.165-1.349.292-2.051.403Zm.938-10.409c-.395-2.929-2.902-5.197-5.938-5.197s-5.543,2.268-5.938,5.197c1.248,1.071,3.465,1.803,5.938,1.803s4.689-.732,5.938-1.803Zm2.148.604c-1.448,1.909-4.484,3.198-8.086,3.198s-6.638-1.29-8.086-3.198c-2.509.837-3.914,2.061-3.914,3.531,0,3.063,6.037,4.667,12,4.667s12-1.604,12-4.667c0-1.471-1.406-2.694-3.914-3.531Z"/></svg>
