<svg xmlns:xlink="http://www.w3.org/1999/xlink" xmlns="http://www.w3.org/2000/svg" width="18" height="18" viewBox="0 0 24 24" fill="none" stroke="currentColor" stroke-width="2" stroke-linecap="round" stroke-linejoin="round" class="lucide lucide-scan-face"><path d="M3 7V5a2 2 0 0 1 2-2h2" stroke="#9B96B0" fill="none" stroke-width="2px"></path><path d="M17 3h2a2 2 0 0 1 2 2v2" stroke="#9B96B0" fill="none" stroke-width="2px"></path><path d="M21 17v2a2 2 0 0 1-2 2h-2" stroke="#9B96B0" fill="none" stroke-width="2px"></path><path d="M7 21H5a2 2 0 0 1-2-2v-2" stroke="#9B96B0" fill="none" stroke-width="2px"></path><path d="M8 14s1.5 2 4 2 4-2 4-2" stroke="#9B96B0" fill="none" stroke-width="2px"></path><path d="M9 9h.01" stroke="#9B96B0" fill="none" stroke-width="2px"></path><path d="M15 9h.01" stroke="#9B96B0" fill="none" stroke-width="2px"></path></svg>